<svg width="50" height="35" viewBox="0 0 50 35" fill="none" xmlns="http://www.w3.org/2000/svg">
<path d="M11.7632 33.4765L9.74882 29.4476C9.64934 29.2487 9.45038 29.1368 9.22656 29.1243H8.18204C7.95822 29.1243 7.75926 29.2487 7.65978 29.4476L5.6578 33.4765C5.63293 33.5262 5.64536 33.5884 5.6951 33.6133C5.70753 33.6257 5.7324 33.6257 5.74484 33.6257H6.64014C6.68988 33.6257 6.75205 33.6008 6.77692 33.5511L7.22457 32.6682H10.1965L10.6441 33.5511C10.669 33.6008 10.7187 33.6381 10.7809 33.6257H11.6762C11.7384 33.6133 11.7757 33.5635 11.7757 33.5014C11.7757 33.5014 11.7757 33.4889 11.7632 33.4765ZM7.67222 31.7729L8.50534 30.0943C8.53021 30.057 8.56752 30.0321 8.60482 30.0321H8.81621C8.85352 30.0321 8.90326 30.057 8.91569 30.0943L9.74882 31.7854L7.67222 31.7729ZM50 29.2363V29.9202C50 29.9823 49.9503 30.0321 49.8881 30.0321H48.0726V34.1107C48.0726 34.148 48.0353 34.1853 47.998 34.1853C47.9731 34.1853 47.9607 34.1728 47.9483 34.1604L47.0405 33.3895C46.9659 33.3273 46.9286 33.2402 46.9286 33.1532V30.0196H45.4862C45.3991 30.0196 45.3245 29.9699 45.2872 29.8953L44.9391 29.199C44.9266 29.1741 44.9391 29.1368 44.9639 29.1243C44.9764 29.1243 44.9764 29.1119 44.9888 29.1119H49.8757C49.9378 29.1243 50 29.1741 50 29.2363ZM40.2512 30.1067V30.9398H43.5712C43.8199 30.9522 44.0189 31.1512 44.0065 31.3999C43.994 31.6362 43.8075 31.8227 43.5712 31.8351H40.2512V32.4569C40.2512 32.6185 40.3755 32.7428 40.5372 32.7428H44.2676C44.3298 32.7428 44.3795 32.7926 44.3795 32.8548V33.5387C44.3795 33.6008 44.3298 33.6381 44.2676 33.6506H40.2263C39.5921 33.6506 39.0823 33.1408 39.0823 32.5066V29.7212C39.0823 29.4103 39.3434 29.1492 39.6543 29.1492H44.2676C44.3298 29.1492 44.3795 29.199 44.3795 29.2611V29.945C44.3795 30.0072 44.3298 30.0445 44.2676 30.057H40.3134C40.2885 30.0321 40.2512 30.057 40.2512 30.1067ZM38.1124 29.2611V33.2154C38.1124 33.5262 37.8637 33.7749 37.5528 33.7749C37.4161 33.7749 37.2917 33.7252 37.1922 33.6381L33.7105 30.6787V33.5014C33.7105 33.576 33.6483 33.6381 33.5737 33.6381H32.6909C32.6163 33.6381 32.5417 33.576 32.5417 33.5014V29.5596C32.5417 29.2487 32.7903 29 33.1012 29C33.238 29 33.3623 29.0497 33.4618 29.1368L36.9435 32.0962V29.2736C36.9435 29.199 37.0057 29.1243 37.0803 29.1243H37.9632C38.0502 29.1243 38.1124 29.1865 38.1124 29.2611ZM31.7956 31.375C31.7956 31.6859 31.5469 31.947 31.2236 31.947C30.9127 31.947 30.6516 31.6983 30.6516 31.375C30.6516 31.0642 30.9003 30.803 31.2236 30.803C31.5469 30.8155 31.7956 31.0642 31.7956 31.375ZM27.2569 30.1067V30.9398H29.5573C29.806 30.9522 30.005 31.1512 29.9925 31.3999C29.9801 31.6362 29.7936 31.8227 29.5573 31.8351H27.2569V32.4569C27.2569 32.6185 27.3812 32.7428 27.5429 32.7428H31.2733C31.3355 32.7428 31.3852 32.7926 31.3852 32.8548V33.5387C31.3852 33.6008 31.3355 33.6506 31.2733 33.6506H27.232C26.5979 33.6506 26.088 33.1408 26.088 32.5066V29.7212C26.088 29.4103 26.3492 29.1492 26.66 29.1492H31.2733C31.3355 29.1492 31.3852 29.199 31.3852 29.2611V29.945C31.3852 30.0072 31.3355 30.057 31.2733 30.057H27.3191C27.2818 30.0321 27.2569 30.057 27.2569 30.1067ZM25.6031 32.8423V33.5262C25.6031 33.5884 25.5533 33.6381 25.4912 33.6381H22.2457C21.6115 33.6381 21.1017 33.1283 21.1017 32.4942V29.2487C21.1017 29.1865 21.1515 29.1368 21.2136 29.1368H22.1711C22.2333 29.1368 22.283 29.1865 22.283 29.2487V32.4569C22.283 32.6185 22.4074 32.7428 22.569 32.7428H25.5036C25.5658 32.7304 25.6031 32.7802 25.6031 32.8423ZM20.4924 29.2363V29.9202C20.4924 29.9823 20.4427 30.0321 20.3805 30.0321H18.6894V34.1107C18.6894 34.148 18.6521 34.1853 18.6148 34.1853C18.6023 34.1853 18.5775 34.1728 18.565 34.1728L17.6573 33.4019C17.5827 33.3397 17.5454 33.2527 17.5454 33.1656V30.0196H16.4511C16.3641 30.0196 16.2895 29.9699 16.2522 29.8953L15.904 29.199C15.8916 29.1741 15.9164 29.1243 15.9537 29.1243H20.3929C20.4427 29.1243 20.4924 29.1741 20.4924 29.2363ZM4.42676 31.3377C4.63815 31.2631 5.06093 31.0517 5.06093 30.4797C5.06093 29.4974 4.32728 29.1243 3.45685 29.1243H0.111912C0.0497381 29.1243 0 29.1741 0 29.2363V33.5262C0 33.5884 0.0497381 33.6381 0.111912 33.6381H3.87963C4.42676 33.6257 5.22258 33.3148 5.22258 32.3076C5.22258 31.661 4.65058 31.3999 4.42676 31.3377ZM1.14399 30.0943C1.14399 30.057 1.16886 30.0321 1.20617 30.0196H1.2186H3.28276C3.49415 30.0196 3.97911 30.0196 3.97911 30.4673C3.97911 30.9149 3.49415 30.9149 3.28276 30.9149H1.14399V30.0943ZM3.54389 32.718H1.2186C1.1813 32.718 1.15643 32.6931 1.14399 32.6558V32.6434V31.8227H3.53146C3.76772 31.8227 4.14076 31.8227 4.14076 32.2703C4.14076 32.7428 3.71798 32.718 3.54389 32.718ZM15.332 29.2363V29.9202C15.332 29.9823 15.2823 30.0321 15.2201 30.0321H13.8896V34.1107C13.8896 34.148 13.8523 34.1853 13.815 34.1853C13.8025 34.1853 13.7777 34.1728 13.7652 34.1728L12.8575 33.4019C12.7829 33.3397 12.7456 33.2527 12.7456 33.1656V30.0196H11.3032C11.2161 30.0196 11.1415 29.9699 11.1042 29.8953L10.756 29.199C10.7436 29.1741 10.7685 29.1368 10.7933 29.1243C10.7933 29.1243 10.7933 29.1243 10.8058 29.1243H15.2077C15.2823 29.1243 15.332 29.1741 15.332 29.2363Z" fill="white"/>
<path d="M34.7667 11.457C36.1312 11.4661 36.5731 11.0796 36.7432 10.8288C37.3764 10 36.3847 8.41154 34.0593 7.20648C34.9612 5.50121 35.5884 3.97266 35.9048 2.87475C36.0764 2.27399 35.9601 1.90989 35.9276 1.84641C35.8403 2.38064 35.1227 4.30732 33.4799 6.92718C32.2103 6.3574 30.6097 5.90645 28.718 5.71856C28.2641 4.85831 26.9468 2.4756 25.6467 1.20249C24.7916 0.362041 24.107 0.0537918 23.5728 0.0106269H23.5702C22.8679 -0.0680857 22.419 0.307703 22.1788 0.569232C21.3054 1.51023 20.9433 3.05096 20.9092 4.8385C20.5416 4.21134 20.0373 3.58773 19.462 3.52172H19.4528C18.4037 3.34499 17.5033 5.00557 17.6246 7.64981C15.6766 7.71989 14.0191 7.94181 12.9019 8.2201C12.3991 8.34451 12.0782 8.58928 12 8.7137C12.0508 8.6944 13.1375 8.24549 17.6653 8.24549C17.9304 10.9369 19.176 13.4161 18.9856 12.9779C18.4915 13.7599 17.0437 16.1447 16.5831 17.9393C16.285 19.1012 16.3612 19.8492 16.5907 20.3332C16.8736 20.9807 17.4241 21.1823 17.7689 21.2605C19.0384 21.5505 20.5812 21.0761 22.1717 20.1869C21.7893 20.839 21.4658 21.6348 21.7116 22.1847C22.0828 23.1826 23.9709 23.1323 26.2028 21.7048C27.2276 23.339 28.2376 24.6472 29.0314 25.4688C29.1617 25.6093 29.3113 25.7305 29.4757 25.8289C29.7367 25.9919 29.9114 26 29.9114 26C29.493 25.6572 28.1848 24.0703 26.7355 21.3392C27.8639 20.5267 29.0537 19.3653 30.1618 17.8215C36.3989 18.0551 37.4384 16.5641 37.6776 16.2148C38.4225 15.2052 37.8518 13.2978 34.7667 11.457ZM30.8133 16.8511C32.0225 14.9361 32.3541 13.4095 32.3089 12.1623C33.7237 13.0546 34.7048 14.0707 34.8002 15.1499C34.8581 15.8065 34.3889 16.6286 30.8133 16.8511ZM23 19.6873C23.4956 19.3709 23.9917 19.021 24.4828 18.6467C24.822 19.3236 25.1734 19.9721 25.5289 20.5861C23.4672 21.6962 22.0331 21.2341 23 19.6873ZM33.9182 10.9857C33.3956 10.7145 32.8436 10.4606 32.2738 10.2214C32.6774 9.60849 33.0625 8.98359 33.4286 8.34756C35.4122 9.57141 35.7595 11.0482 33.9182 10.9857ZM26.1627 20.2108C25.8829 19.6344 25.6041 19.0174 25.3248 18.3603C27.5211 18.4248 28.4946 17.4092 28.5383 17.3238C28.5383 17.3274 27.2687 18.1181 25.3629 17.9459C26.9187 16.6464 28.3635 15.2196 29.6824 13.6802C30.1245 13.1619 30.5465 12.6353 30.9484 12.1004C30.9301 12.0856 30.8702 11.948 30.11 11.491C27.4845 14.5516 24.9129 16.4677 23.3686 17.3777C22.323 16.8099 21.2947 15.7638 20.5396 14.2551C19.5239 12.2278 19.0161 10.0711 18.9364 8.36076C19.561 8.40697 20.2196 8.47096 20.9092 8.5578C19.7773 10.4266 20.1785 11.7571 20.2252 11.8195C20.2252 11.816 20.177 10.3382 21.248 8.79444C21.7044 11.46 22.4655 14.0642 23.5164 16.556C23.5636 16.5367 23.6099 16.6007 24.4645 16.1371C23.1274 12.3553 22.7501 9.12047 22.7379 7.32988C23.7536 6.69917 25.1846 6.32439 26.8833 6.42545C29.1466 6.56104 31.2688 7.19988 32.7903 7.98497C32.4284 8.51514 32.0335 9.06477 31.6055 9.63388C30.5528 7.71837 29.2056 7.40555 29.1243 7.41367C29.1299 7.41367 30.4396 8.12818 31.2328 9.81161C29.3286 9.11278 27.3694 8.57414 25.3756 8.20131C24.7121 8.07837 24.045 7.97591 23.3752 7.89407C23.3717 7.91693 23.2833 7.98802 23.2655 8.92648C27.22 9.66231 30.205 10.9522 31.7579 11.8317C31.7955 13.0277 31.4049 14.4526 30.4675 15.8725C29.2183 17.7672 27.6039 19.2866 26.1627 20.2108ZM27.5541 5.63629C25.2913 5.55199 23.8176 6.0136 22.7455 6.68596C22.8471 4.03005 23.8277 2.80721 24.6859 2.86307C25.5442 2.64775 27.4739 5.51188 27.5541 5.63629ZM20.9194 5.79372C20.9438 6.40869 21.0002 7.04398 21.0824 7.68688C20.3435 7.64372 19.6229 7.6234 18.9292 7.6229C18.9252 7.78743 18.9232 5.033 20.182 5.1046H20.1866C20.4791 5.15995 20.7264 5.45398 20.9194 5.79372ZM19.4945 14.0205C20.5487 16.0365 21.6933 17.0963 22.808 17.6925C20.4319 18.9499 18.8708 18.7082 18.4956 17.9215C18.4854 17.9109 17.9304 17.1446 19.4945 14.021V14.0205Z" fill="white"/>
</svg>
