<svg width="50" height="50" viewBox="0 0 50 50" fill="none" xmlns="http://www.w3.org/2000/svg">
<mask id="mask0_609_1892" style="mask-type:luminance" maskUnits="userSpaceOnUse" x="0" y="0" width="50" height="50">
<path d="M49.8028 0H0V50H49.8028V0Z" fill="white"/>
</mask>
<g mask="url(#mask0_609_1892)">
<mask id="mask1_609_1892" style="mask-type:luminance" maskUnits="userSpaceOnUse" x="0" y="0" width="50" height="50">
<path d="M49.8028 0H0V50H49.8028V0Z" fill="white"/>
</mask>
<g mask="url(#mask1_609_1892)">
<path d="M24.9014 50C38.6539 50 49.8028 38.807 49.8028 25C49.8028 11.1929 38.6539 0 24.9014 0C11.1487 0 0 11.1929 0 25C0 38.807 11.1487 50 24.9014 50Z" fill="#060D1F"/>
<path fill-rule="evenodd" clip-rule="evenodd" d="M33.4508 12.7897C33.4508 12.7897 33.4552 12.7897 33.4594 12.7897H33.4684C33.4684 12.7897 33.4728 12.7897 33.477 12.7897H33.4858C33.5471 12.7854 33.6125 12.8029 33.6736 12.8336C33.7348 12.8687 33.7872 12.9169 33.8397 12.9783C33.8877 13.0397 33.9313 13.1055 33.9664 13.1757C34.0014 13.2459 34.0232 13.3161 34.0318 13.3818C34.0452 13.4695 34.0452 13.5573 34.0318 13.6362C34.019 13.7152 33.9926 13.7897 33.9575 13.8511C33.9227 13.9169 33.8745 13.9695 33.8177 14.009C33.761 14.0485 33.6956 14.0748 33.6255 14.088C33.5557 14.0968 33.4858 14.088 33.4202 14.0617C33.3549 14.0354 33.2935 13.9959 33.2368 13.9476C33.18 13.895 33.132 13.8292 33.0969 13.759C33.0577 13.6845 33.0315 13.6011 33.0183 13.5134C33.0053 13.4169 33.0053 13.3292 33.0183 13.2459C33.0315 13.1625 33.0577 13.088 33.0969 13.0222C33.1364 12.9564 33.1842 12.9038 33.2456 12.8643C33.3023 12.8248 33.3721 12.7985 33.4466 12.7941L33.4508 12.7897ZM24.9146 0.228333C22.8699 0.228333 20.8778 0.482717 18.9774 0.956402C19.9735 2.62306 21.6118 3.92569 24.329 3.9915C26.2164 4.30289 31.4893 5.32482 32.8087 8.27219C32.8741 8.27659 32.9352 8.28536 33.0009 8.29412C33.1189 8.31166 33.2324 8.33799 33.3503 8.37306C33.464 8.40815 33.5777 8.44762 33.6956 8.49589C33.8091 8.54413 33.9227 8.60115 34.0406 8.66254C34.3377 8.82482 34.5999 9.01343 34.8314 9.22832C35.0584 9.43885 35.2595 9.68008 35.4299 9.94324C35.6004 10.2064 35.7445 10.4915 35.8622 10.8029C35.9801 11.1143 36.0765 11.452 36.1462 11.8117C36.2249 12.202 36.2467 12.588 36.2292 12.9608C36.2076 13.338 36.1376 13.6976 36.0283 14.0354C35.9148 14.3775 35.7575 14.6932 35.5652 14.9695C35.3686 15.2502 35.1285 15.4915 34.8534 15.6801C34.7832 15.7283 34.7135 15.7722 34.6391 15.8073C34.5648 15.8468 34.4906 15.8818 34.4163 15.9125C34.342 15.9432 34.2634 15.9695 34.1893 15.9959C34.1105 16.0178 34.032 16.0397 33.9532 16.0529H33.9271C35.4821 16.895 38.4181 17.0397 39.8598 16.8775C41.6159 16.6801 44.0363 18.145 43.6954 19.1625C43.0574 21.0792 41.6597 21.2415 40.3926 21.4081C39.6806 21.5002 39.0994 21.0353 38.4531 21.0923C37.8543 21.145 37.3827 21.7678 36.9414 22.0967C36.7272 22.2546 34.5648 23.2941 34.5604 23.1187C34.5604 23.9476 33.1059 24.7899 31.804 24.9608C31.4545 25.0046 31.1048 25.009 30.7728 24.9652C30.301 24.9039 29.8467 24.8116 29.4012 24.6932C29.1694 24.7899 28.9118 24.8862 28.6366 24.9783C29.2308 25.9169 32.2015 29.4652 32.7867 30.0309C34.9581 30.3469 39.139 30.6625 40.9037 31.3599C45.0891 33.0136 44.0887 34.2853 43.9795 34.8469C43.9486 35.0046 40.0431 38.8379 40.3403 39.0136C40.6504 39.202 42.7779 41.3599 40.9604 43.5002C40.5807 43.952 38.1997 45.8555 35.2331 45.3029C35.2331 45.3029 33.9141 47.0136 32.7475 47.0136C32.7475 47.0136 34.827 43.9346 35.1502 41.8555C35.7225 40.0923 35.2902 36.6669 27.7017 25.3116C26.5919 25.5969 23.7698 26.316 21.9438 25.7108C22.3283 28.0616 24.15 34.3818 24.1324 34.7108C23.9971 34.4783 22.5424 33.439 22.2977 33.3206C22.1491 33.2502 19.222 36.2853 15.7141 36.1625C15.0151 36.1625 14.3292 36.1276 13.6521 36.0441C13.4555 36.0222 13.0972 38.009 13.1759 38.8643C13.1759 38.8818 13.1715 38.8994 13.1672 38.9169C13.0929 38.9345 13.0841 38.8776 13.0579 38.8423C12.7477 38.3862 12.7041 37.8599 12.49 37.3072C11.4153 34.5399 14.4603 34.0572 13.3506 30.7766C13.3506 30.7766 13.9404 31.1448 14.1326 31.4125C14.3729 31.7415 14.4996 32.1276 14.5564 32.5441C14.6132 32.952 15.3122 30.8862 15.2379 31.0836C14.7006 29.2283 12.6516 28.259 12.6516 28.259C14.4559 27.9255 15.299 29.4345 15.5481 29.8292C15.583 29.4783 15.002 25.6186 10.262 24.6976C9.0868 24.4695 9.21787 26.8993 8.92954 28.0616C8.92954 28.0792 8.91207 28.0923 8.89457 28.1276C8.76352 28.0529 8.71548 27.9301 8.67179 27.8072C8.5014 27.3469 8.54071 26.8469 8.65432 26.3379C8.69364 26.1583 8.58878 26.1362 8.50578 25.9695C7.68008 24.3206 4.58708 24.4213 4.78368 24.6099C5.75351 25.5616 5.5045 33.316 6.45685 35.4915C6.58793 35.7853 8.75479 41.2459 9.46252 41.3948C9.49746 41.4039 7.41799 42.0222 7.39613 42.0706C7.36555 42.1318 8.29172 42.7066 8.75479 42.9083C10.7906 43.7941 13.0273 43.9346 15.4694 43.3029C16.7276 42.9783 17.9858 42.6362 19.209 42.1232C20.5852 41.5441 21.7953 40.7415 22.7564 39.6055C22.8 39.5572 22.8743 39.4959 22.9748 39.4608C22.6559 40.5441 20.7861 47.0136 20.6987 47.0178C19.6589 47.066 19.0605 43.8906 19.6939 43.9213C19.6939 43.9213 14.1544 46.0706 8.86837 43.7941C13.1846 47.5136 18.7896 49.7636 24.91 49.7636C38.5098 49.7636 49.5714 38.6583 49.5714 25.0046C49.5714 11.3511 38.514 0.228333 24.9146 0.228333ZM30.3405 8.23712H30.2268C30.1177 8.23273 30.0084 8.22832 29.8949 8.22832C29.7857 8.22832 29.6718 8.22832 29.5583 8.22832C29.3923 8.22832 29.222 8.22832 29.0517 8.22832C28.8812 8.22832 28.7065 8.22832 28.5317 8.22832C28.357 8.22832 28.1778 8.22832 27.9987 8.22832C27.8198 8.22832 27.6362 8.22832 27.4527 8.22832V8.23712C27.2956 8.23712 27.1381 8.23712 26.9764 8.23273C26.8148 8.23273 26.6531 8.23273 26.487 8.23273C26.3211 8.23273 26.1551 8.23273 25.989 8.23273C25.8231 8.23273 25.6526 8.23273 25.4824 8.22832C25.3121 8.22832 25.1374 8.22832 24.9625 8.22396C24.7879 8.22396 24.6086 8.22396 24.4296 8.21955C24.2505 8.21955 24.067 8.21955 23.8878 8.21519C23.7043 8.21519 23.5208 8.21078 23.333 8.20639H23.32C23.2325 8.20639 23.1407 8.20639 23.0534 8.21078C22.966 8.21078 22.8743 8.21955 22.787 8.23273C22.6996 8.2415 22.6079 8.25466 22.5204 8.26782C22.433 8.28096 22.3457 8.29852 22.2584 8.31606C21.5681 8.46078 20.9434 8.76343 20.4191 9.18447C19.8817 9.61429 19.4493 10.1713 19.1479 10.8029C18.8421 11.4476 18.676 12.1625 18.676 12.8994C18.676 13.645 18.8463 14.4038 19.2046 15.1187C19.4625 15.6318 19.7988 16.088 20.1919 16.474C20.5502 16.8292 20.9565 17.1275 21.389 17.3555C20.7643 17.3117 20.2137 17.3643 19.9255 17.6582C17.7411 19.8774 19.9997 23.0616 21.2317 23.645C24.1152 25.009 26.0853 23.5178 26.7013 23.7634L27.0114 23.8862C26.4217 24.2985 25.4342 25.009 23.5864 25.009C18.8507 25.009 15.4519 20.9652 16.1597 17.6582C16.4961 16.0748 18.6804 11.0792 15.9194 7.38185C15.9806 7.33359 18.0382 6.25025 18.0382 6.25025C16.3126 6.19762 14.1501 2.25464 16.1466 3.49589C16.9635 4.00466 18.0862 4.43447 19.1653 4.77219C17.8853 2.95201 18.4095 1.98271 18.4095 1.98271C19.5366 5.11868 23.5908 5.42569 23.5908 5.42569C28.9424 5.87745 29.8555 7.30289 30.3447 8.26343L30.3405 8.23712ZM32.3326 12.8599C32.2583 12.8687 32.184 12.8599 32.1142 12.8292C32.0441 12.7985 31.9787 12.7547 31.9219 12.6932C31.8652 12.6318 31.8126 12.5573 31.7733 12.474C31.7339 12.3906 31.7035 12.2941 31.6901 12.1889C31.6771 12.1055 31.6815 12.0222 31.6991 11.9476C31.7163 11.8731 31.7469 11.8029 31.7864 11.7415C31.8256 11.6801 31.878 11.6318 31.9392 11.5968C32.0005 11.5617 32.066 11.5397 32.1404 11.531C32.2144 11.5266 32.2845 11.5397 32.3498 11.5661C32.4156 11.5924 32.4809 11.6362 32.5335 11.6888C32.5903 11.7415 32.6384 11.8073 32.6732 11.8862C32.7124 11.9608 32.7387 12.0441 32.7563 12.1362C32.7739 12.2283 32.7739 12.3161 32.7563 12.3994C32.743 12.4827 32.717 12.5573 32.6776 12.6231C32.6384 12.6889 32.5903 12.7459 32.5291 12.7854C32.4679 12.8248 32.4024 12.8511 32.3281 12.8599H32.3326ZM34.4383 12.6494C34.3681 12.6494 34.3028 12.6406 34.2416 12.6099C34.1761 12.5792 34.1191 12.5354 34.0668 12.4783C34.0144 12.4213 33.9664 12.3555 33.9313 12.2766C33.8965 12.1976 33.8701 12.1143 33.8615 12.0266C33.8529 11.9388 33.8529 11.8555 33.8659 11.781C33.8791 11.7064 33.9051 11.6362 33.9402 11.5792C33.975 11.5222 34.019 11.474 34.0712 11.4388C34.1235 11.4038 34.1803 11.3862 34.246 11.3818C34.246 11.3818 34.246 11.3818 34.2546 11.3818C34.2546 11.3818 34.2546 11.3818 34.259 11.3818C34.259 11.3818 34.2634 11.3818 34.268 11.3818H34.2722C34.3377 11.3818 34.4077 11.3994 34.4688 11.4301C34.53 11.4608 34.5868 11.509 34.6391 11.5661C34.6917 11.6231 34.7351 11.6888 34.766 11.7634C34.8008 11.838 34.8228 11.9213 34.8314 12.009C34.84 12.0924 34.8358 12.1713 34.8228 12.2415C34.8094 12.3161 34.7832 12.3818 34.7484 12.4388C34.7135 12.4959 34.6697 12.5485 34.6216 12.5836C34.5692 12.6187 34.5124 12.6406 34.4513 12.6494H34.4383ZM33.2018 11.4213C33.132 11.4257 33.0621 11.4125 32.9966 11.3818C32.931 11.3511 32.8655 11.3073 32.8131 11.2503C32.7563 11.1932 32.7082 11.1275 32.669 11.0485C32.6294 10.974 32.6033 10.8862 32.5859 10.7985C32.5727 10.7108 32.5727 10.6275 32.5859 10.5485C32.5989 10.4695 32.625 10.3994 32.66 10.338C32.6952 10.2766 32.743 10.2283 32.7955 10.1888C32.8479 10.1538 32.9136 10.1318 32.979 10.1231C32.979 10.1231 32.979 10.1231 32.9834 10.1231H32.9878C33.0577 10.1231 33.1275 10.1362 33.1932 10.1625C33.2586 10.1932 33.3197 10.2327 33.3765 10.2897C33.429 10.3424 33.477 10.4082 33.5164 10.4827C33.5557 10.5573 33.5819 10.6362 33.5993 10.724C33.6169 10.8117 33.6169 10.895 33.6039 10.974C33.5907 11.0529 33.5687 11.1231 33.5295 11.1888C33.4946 11.2503 33.4466 11.3029 33.3941 11.3424C33.3373 11.3818 33.2761 11.4082 33.2018 11.4125V11.4213ZM22.2016 13.8994C22.018 13.9169 21.8783 13.9301 21.7691 13.9257C21.6598 13.9213 21.5855 13.8994 21.5331 13.8468C21.4807 13.7941 21.4458 13.7152 21.4196 13.6011C21.3934 13.4827 21.3758 13.3292 21.354 13.1231C21.3323 12.9125 21.3147 12.759 21.3147 12.6406C21.3147 12.5222 21.3323 12.4432 21.3802 12.3862C21.4282 12.3292 21.5069 12.2985 21.6248 12.2766C21.7428 12.2547 21.9 12.2415 22.1099 12.2283C22.3239 12.2108 22.4854 12.202 22.6035 12.1801C22.7214 12.1582 22.7958 12.1275 22.8437 12.0704C22.8917 12.0134 22.9049 11.9301 22.9049 11.8117C22.9049 11.6932 22.8831 11.531 22.8611 11.3204C22.8349 11.1187 22.8176 10.9652 22.8176 10.8511C22.8176 10.7371 22.8305 10.6582 22.8743 10.6099C22.9181 10.5573 22.9878 10.531 23.0971 10.5134C23.2063 10.4959 23.3505 10.4915 23.547 10.4827C23.7481 10.474 23.8922 10.4695 24.0059 10.4827C24.1194 10.4915 24.1935 10.5134 24.2505 10.5617C24.3074 10.6099 24.3378 10.6845 24.3642 10.7941C24.3904 10.9082 24.4076 11.0573 24.4339 11.2547C24.4601 11.4564 24.4777 11.6099 24.5039 11.724C24.5301 11.838 24.565 11.9125 24.6218 11.9608C24.6786 12.009 24.7573 12.0266 24.8708 12.031C24.9843 12.0354 25.1328 12.0266 25.3297 12.0134C25.5129 12.0003 25.644 11.9915 25.749 11.9959C25.8493 12.0002 25.9192 12.0178 25.9718 12.0661C26.0242 12.1099 26.0547 12.1801 26.0809 12.2854C26.1073 12.3906 26.1245 12.5354 26.1507 12.7283C26.177 12.9169 26.1946 13.0617 26.1988 13.1713C26.1988 13.281 26.1902 13.3555 26.1507 13.4038C26.1115 13.4564 26.0459 13.4871 25.9456 13.509C25.8449 13.531 25.7052 13.5485 25.5215 13.5661C25.3297 13.588 25.181 13.6011 25.0717 13.6275C24.9625 13.6538 24.8928 13.6845 24.8488 13.7415C24.8055 13.7985 24.7921 13.8818 24.7921 14.0003C24.7921 14.1187 24.8141 14.2766 24.8402 14.4871C24.8664 14.6889 24.8838 14.838 24.8884 14.952C24.8884 15.0661 24.8752 15.145 24.8358 15.202C24.7921 15.259 24.7223 15.2941 24.6174 15.3204C24.5083 15.3468 24.3596 15.3687 24.163 15.395C23.9665 15.4213 23.8224 15.4432 23.7087 15.4432C23.5952 15.4432 23.5164 15.4301 23.4597 15.3818C23.4029 15.338 23.3679 15.259 23.3418 15.145C23.3156 15.031 23.298 14.8731 23.2718 14.6625C23.2456 14.4476 23.2282 14.2854 23.1977 14.1669C23.1713 14.0485 23.1321 13.9695 23.0754 13.9213C23.014 13.8731 22.9311 13.8555 22.8088 13.8555C22.6865 13.8555 22.5204 13.8731 22.3019 13.895C22.2933 13.895 22.2889 13.895 22.2802 13.895C22.2714 13.895 22.2672 13.895 22.2584 13.895C22.2496 13.895 22.2452 13.895 22.2364 13.895C22.2278 13.895 22.2234 13.895 22.2146 13.895L22.2016 13.8994ZM16.863 1.58798C16.7189 2.03536 16.6664 2.56606 16.8019 3.18447C16.3868 3.00466 16.8019 3.18447 16.4699 2.97832C16.1597 2.78536 15.5917 2.42569 15.1723 2.24587C15.7228 2.00464 16.2864 1.78535 16.8587 1.58798H16.863ZM14.4122 2.59236C14.1326 3.23273 13.9928 4.52219 15.2466 6.25466C15.2466 6.25466 13.0798 7.39938 13.7656 8.46955C15.2466 10.7854 15.2466 15.0354 13.4424 16.8775C13.4424 16.8775 14.1544 23.1669 18.781 24.9915C19.4537 25.259 20.1439 25.452 20.8342 25.5836C21.14 26.8906 22.0311 32.1276 22.1011 32.2195C20.5808 33.5572 16.732 35.8292 14.7137 34.6055C14.7137 34.6055 15.8539 33.202 16.0461 32.316C16.2165 31.5399 16.3038 30.7678 16.365 29.9959C16.4174 29.3776 16.4174 28.7678 16.4349 28.1539C16.4567 27.4608 15.7578 26.2239 14.7093 25.3423C13.9535 24.7064 10.3362 22.9257 9.5193 23.9915C9.31835 24.2546 9.17416 24.5399 9.07369 24.8336C9.02565 24.9695 7.20828 22.9871 3.90993 23.8467C3.45123 23.9652 3.49492 24.5399 3.80509 24.7809C5.7404 26.2941 3.6216 33.202 3.56918 33.5178C3.28959 35.2108 6.77579 41.1143 6.77579 41.1143C6.67095 41.1318 6.50493 41.1932 6.33891 41.2636C2.55128 36.9039 0.253357 31.2108 0.253357 24.9871C0.253357 15.1055 6.05057 6.55729 14.4122 2.59236ZM39.9514 42.2195C39.2611 43.1406 37.789 44.5353 36.177 44.2108C36.8149 42.5529 37.3521 41.7853 37.1379 39.9829C37.0681 39.4083 36.3603 35.259 33.8529 32.0836C33.9007 32.0836 42.7431 33.3029 42.1621 35.0266C41.7075 35.7899 37.1163 40.6143 39.3398 41.2853C39.1084 40.759 39.7855 40.2459 39.7855 40.2459C40.7248 40.5969 40.3535 41.6755 39.9514 42.2152V42.2195Z" fill="white"/>
<path fill-rule="evenodd" clip-rule="evenodd" d="M41.7207 18.3636C40.3403 16.9163 36.6269 18.2934 34.8838 17.9206C32.1314 17.3285 31.5678 12.5873 28.7196 13.5259C27.7235 13.8549 27.8022 17.6838 25.976 18.482C25.2248 18.811 21.4326 18.6399 21.2623 19.3022C21.0745 20.0478 21.9262 23.2233 22.835 23.0873C26.9067 22.4733 28.9204 23.9513 30.9387 24.2143C32.6512 24.4336 34.307 22.9162 33.3373 23.0434C31.651 23.2671 23.3506 21.504 22.752 20.9338C22.516 20.7101 23.569 19.3636 24.3904 19.2627C23.8704 19.868 24.3552 20.3548 24.884 20.618C25.8755 21.1048 30.9433 22.0478 32.0834 22.2233C34.4817 22.5873 35.8231 21.8636 37.5314 20.7276C40.3445 18.7233 41.0959 19.4908 41.0959 19.4908C40.5763 19.3943 39.7725 19.9382 39.1695 20.425C39.5539 20.5873 39.9252 20.8154 40.6766 20.561C42.0222 20.1048 42.5902 19.289 41.712 18.368L41.7207 18.3636ZM31.9437 18.6618C31.7077 18.6706 31.4543 18.6399 31.3584 18.4425C31.2621 18.2496 31.4367 18.1356 31.6596 18.1224C31.9042 18.1049 32.0922 18.2101 32.2144 18.3461C32.2144 18.5347 32.136 18.6531 31.9393 18.6618H31.9437Z" fill="#ED6F00"/>
<path fill-rule="evenodd" clip-rule="evenodd" d="M3.04492 32C2.34156 29.7895 1.96149 27.4344 1.96149 24.987C1.96149 16.3992 6.64032 8.91238 13.5734 4.94745C13.6783 5.27201 13.8268 5.6185 14.0321 5.98692C13.5385 6.3641 12.9836 6.91675 12.8089 7.5834C12.6822 8.06147 12.7608 8.53078 13.023 8.94745C14.3598 11.0308 14.2506 14.7852 12.8132 16.2501L12.5162 16.5527L12.5642 16.9738C12.5948 17.2501 13.3943 23.8158 18.4576 25.816C18.9818 26.0221 19.5322 26.1974 20.1046 26.3333C20.2137 26.759 20.4671 28.4563 21.175 32.009C20.1525 32.921 17.5139 34.237 16.1334 34.1493C16.4611 33.6403 16.7931 33.0307 16.9067 32.5044C17.61 29.259 18.676 27.5176 15.2772 24.6623C14.6263 24.1142 12.1143 22.7721 10.4149 22.7721C9.52802 22.7721 9.05621 23.1404 8.82029 23.4518C8.78535 23.4958 8.75477 23.5395 8.7242 23.5835C8.04267 23.1974 6.96799 22.7458 5.53942 22.7458C4.93656 22.7458 4.31183 22.829 3.68712 22.9914C3.18036 23.1228 2.81775 23.5044 2.71291 24.0088C2.59931 24.5483 2.82211 25.1449 3.25898 25.487C3.45995 25.6449 4.33803 26.671 3.04054 32.0132L3.04492 32Z" fill="#E6234A"/>
<path fill-rule="evenodd" clip-rule="evenodd" d="M47.8719 24.9871C47.8719 30.7722 45.7485 36.0616 42.2407 40.1099C42.0222 39.6099 41.7339 39.1888 41.463 38.8642C41.996 38.2371 43.0183 37.1669 43.5775 36.5835C44.77 35.3379 44.792 35.3162 44.8531 35.0092C44.8531 34.9915 44.8749 34.9388 44.8879 34.8994C45.4822 33.0748 44.3899 31.7678 41.2358 30.5222C39.3966 29.7941 35.3468 29.3248 33.0707 29.0002C33.1189 28.2371 30.4059 25.7415 30.6026 25.7634C33.7085 26.0748 35.1286 24.009 35.1895 23.8774C36.0459 23.566 37.3389 22.895 37.47 22.7985C37.6317 22.6801 37.78 22.5441 37.9245 22.4125C38.1034 22.2502 38.4049 21.9739 38.5404 21.9651C38.5534 21.9651 38.5622 21.9651 38.5752 21.9651C38.7063 21.9651 38.8986 22.0222 39.0994 22.0879C39.401 22.1801 39.7767 22.2985 40.2092 22.2985C40.3141 22.2985 40.4146 22.2897 40.515 22.2765H40.5587C41.8258 22.1055 43.7348 21.8555 44.5429 19.4344C44.7132 18.9257 44.5997 18.3643 44.2328 17.8467C43.4726 16.7897 41.7033 15.9608 40.2004 15.9608C40.0521 15.9608 39.9076 15.9696 39.7679 15.9827C39.4358 16.0222 36.4476 16.6099 35.3075 15.8994C36.6748 15.5397 37.4832 14.0573 37.5486 12.7853C37.7846 8.17568 34.0056 7.68445 33.6517 7.69322C33.6125 7.69322 33.5688 7.69322 33.5296 7.69322C32.1184 4.92129 27.8982 3.67129 24.4863 3.10551L24.4252 3.09675H24.3642C23.1757 3.06603 22.1667 2.77656 21.3365 2.21517C22.5074 2.03096 23.7087 1.93445 24.932 1.93445C37.6097 1.93445 47.8893 12.2546 47.8893 24.9827L47.8719 24.9871Z" fill="#E6234A"/>
<path fill-rule="evenodd" clip-rule="evenodd" d="M15.2249 31.1574C15.2336 31.1311 15.2424 31.1004 15.2467 31.0741C15.1288 31.3987 15.0676 31.5741 15.2249 31.1574Z" fill="#003364"/>
<path fill-rule="evenodd" clip-rule="evenodd" d="M40.1176 19.3947C40.8557 19.2325 41.1047 19.4825 41.1047 19.4825C40.5851 19.386 39.7813 19.9298 39.1783 20.4167C39.5627 20.579 39.934 20.807 40.6854 20.5526C43.2193 19.693 41.1047 18.5439 40.1176 19.3904V19.3947Z" fill="#E6234A"/>
<path fill-rule="evenodd" clip-rule="evenodd" d="M20.0524 47.7457C18.3267 47.5921 15.8322 46.5002 14.2114 45.522C15.7361 45.465 17.6845 45.3948 18.6107 45.1625C18.698 45.693 18.8553 46.1404 18.8947 46.2413C19.0999 46.7937 19.799 47.5002 20.0524 47.7457Z" fill="#E6234A"/>
<path fill-rule="evenodd" clip-rule="evenodd" d="M34.1629 36.5002C33.9836 36.4871 33.8353 36.4652 33.9706 36.4959C34.0362 36.509 34.0973 36.509 34.1629 36.5002Z" fill="#003364"/>
<path fill-rule="evenodd" clip-rule="evenodd" d="M20.4759 41.4824C20.0696 41.7193 19.6503 41.9254 19.209 42.1097C17.9858 42.623 16.7232 42.9474 15.465 43.2721C13.023 43.9037 10.7906 43.7632 8.75042 42.8772C8.28732 42.6754 7.36116 42.1009 7.39173 42.0397C7.41795 41.987 9.49746 41.3684 9.45811 41.364C8.74604 41.2149 6.57918 35.7544 6.45247 35.4607C5.50012 33.2893 5.74914 25.5307 4.77928 24.579C4.69191 24.4914 5.27295 24.4254 6.01562 24.5307C6.91992 25.6754 6.70149 32.8991 7.63201 34.9517C7.75872 35.2369 9.92994 40.4956 10.6377 40.6403C13.7351 41.2676 17.1339 42.7807 20.4715 41.4779L20.4759 41.4824Z" fill="#C5C6C6"/>
<path fill-rule="evenodd" clip-rule="evenodd" d="M39.9514 42.2191C40.3533 41.6796 40.7204 40.6007 39.7855 40.25C39.7855 40.25 39.1082 40.763 39.3398 41.2893C37.1161 40.6184 41.7075 35.7937 42.1621 35.0307C42.3891 34.3549 41.179 33.7586 39.6108 33.2849C43.4901 35.8287 34.9887 40.6926 38.8548 41.8549C38.8462 41.8377 38.0554 43.6356 36.7491 44.2586C38.1297 44.2103 39.3442 43.0349 39.9514 42.2191Z" fill="#B1B2B3"/>
<path fill-rule="evenodd" clip-rule="evenodd" d="M27.0814 26.3506L26.3649 26.7585C26.2862 26.8022 26.225 26.8813 26.2514 26.9908L26.4261 27.7585C26.4523 27.8682 26.5438 27.9208 26.6355 27.9296L27.5574 28.0261C28.1558 28.0875 28.453 28.2322 28.2869 27.4998L28.0513 26.4736C27.8982 25.8022 27.5357 26.0919 27.0814 26.3506Z" fill="#1A1A18"/>
<path fill-rule="evenodd" clip-rule="evenodd" d="M25.0369 26.9647L25.7798 26.8114C25.9063 26.785 26.0374 26.8726 26.0679 27.0043L26.2778 27.9033C26.3082 28.035 26.2252 28.1577 26.0985 28.184L25.3557 28.3377C25.2292 28.364 25.0981 28.2763 25.0675 28.1447L24.8577 27.2454C24.8271 27.114 24.9102 26.991 25.0369 26.9647Z" fill="#E6234A"/>
<path fill-rule="evenodd" clip-rule="evenodd" d="M28.2216 35.3816C28.4925 35.3816 28.7154 35.6009 28.7154 35.8774C28.7154 36.1537 28.4969 36.373 28.2216 36.373C27.9464 36.373 27.7279 36.1537 27.7279 35.8774C27.7279 35.6009 27.9464 35.3816 28.2216 35.3816ZM26.9723 30.7983C27.2431 30.7983 27.4659 31.0176 27.4659 31.2939C27.4659 31.5704 27.2475 31.7897 26.9723 31.7897C26.6969 31.7897 26.4785 31.5704 26.4785 31.2939C26.4785 31.0176 26.6969 30.7983 26.9723 30.7983ZM27.6929 33.0746C27.9639 33.0746 28.1868 33.2939 28.1868 33.5704C28.1868 33.8467 27.9683 34.066 27.6929 34.066C27.4177 34.066 27.1993 33.8467 27.1993 33.5704C27.1993 33.2939 27.4177 33.0746 27.6929 33.0746Z" fill="#060D1F"/>
<path fill-rule="evenodd" clip-rule="evenodd" d="M23.6214 27.1143L24.5433 27.1669C24.6348 27.1713 24.7267 27.2283 24.7529 27.3379L24.9276 28.1009C24.954 28.2107 24.8928 28.2895 24.8141 28.3336L23.9273 28.8202C23.4117 29.1009 23.1977 29.3336 23.0272 28.6053L22.7914 27.579C22.6341 26.9079 23.0886 27.0836 23.6258 27.1143H23.6214Z" fill="#1A1A18"/>
<path fill-rule="evenodd" clip-rule="evenodd" d="M25.3819 39.4608C25.2114 39.5354 25.0541 39.6275 24.91 39.7371C24.7659 39.8468 24.639 39.9695 24.5387 40.1055C24.4382 40.2415 24.3684 40.3687 24.3422 40.4957L23.4073 44.2415C23.3723 44.3645 23.3723 44.4957 23.4115 44.6318C23.4509 44.7678 23.5121 44.8908 23.5994 45.0002C23.6869 45.1099 23.796 45.2022 23.9315 45.2764C24.067 45.3511 24.2111 45.3862 24.3728 45.3862H30.5938C30.7598 45.3862 30.9259 45.3511 31.0918 45.2764C31.2579 45.2022 31.4106 45.1099 31.5547 45.0002C31.6945 44.8908 31.817 44.7678 31.9174 44.6318C32.0179 44.4957 32.0833 44.3645 32.1184 44.2415L32.7214 41.8599H30.2312H29.222L29.0209 43.0047H29.9427L29.6327 44.2415H25.9017L26.8368 40.4957H33.0577L33.3459 39.3511H25.8841C25.727 39.3511 25.5611 39.3862 25.3906 39.4608H25.3819Z" fill="#E6234A"/>
<path fill-rule="evenodd" clip-rule="evenodd" d="M25.1025 39.0487C24.932 39.1233 24.7747 39.2152 24.6306 39.325C24.4865 39.4346 24.3596 39.5573 24.2593 39.6934C24.1588 39.8294 24.089 39.9566 24.0628 40.0836L23.1278 43.8294C23.0928 43.9522 23.0928 44.0836 23.1321 44.2197C23.1715 44.3557 23.2327 44.4783 23.32 44.588C23.4073 44.6976 23.5167 44.7899 23.652 44.8643C23.7875 44.939 23.9316 44.9741 24.0934 44.9741H30.3144C30.4804 44.9741 30.6463 44.939 30.8124 44.8643C30.9785 44.7899 31.1312 44.6976 31.2753 44.588C31.4152 44.4783 31.5375 44.3557 31.6378 44.2197C31.7385 44.0836 31.8039 43.9522 31.839 43.8294L32.4416 41.4476H29.9515H28.9424L28.7416 42.5926H29.6633L29.3531 43.8294H25.6223L26.5572 40.0836H32.7783L33.0665 38.939H25.6047C25.4476 38.939 25.2815 38.9741 25.1111 39.0487H25.1025Z" fill="#1A1A18"/>
</g>
</g>
</svg>
