<svg width="32" height="34" viewBox="0 0 32 34" fill="none" xmlns="http://www.w3.org/2000/svg">
<path d="M23.3033 33.9656C22.8567 33.8832 22.5087 33.7274 22.1582 33.4532C21.6147 33.0279 21.255 32.4368 21.1337 31.7698C21.0712 31.4259 21.0757 31.1401 21.1492 30.784C21.3425 29.8471 22.0591 29.0451 22.9698 28.7464C23.3569 28.6194 23.98 28.5992 24.4036 28.7C24.964 28.8333 25.5236 29.1729 25.8637 29.586C25.9501 29.6909 26.0208 29.7892 26.0208 29.8043C26.0208 29.834 25.2524 30.5027 25.2183 30.5027C25.2069 30.5027 25.136 30.4297 25.0607 30.3404C24.9855 30.2511 24.8385 30.1214 24.7342 30.0521C23.8878 29.4903 22.7856 29.7919 22.3565 30.7028C22.2774 30.8707 22.2701 30.9229 22.2699 31.3203C22.2695 31.7455 22.2719 31.759 22.3814 31.9814C22.5245 32.2722 22.8048 32.5589 23.0792 32.6952C23.7566 33.0315 24.6026 32.8557 25.0703 32.2816V32.2816C25.1501 32.1835 25.2955 32.1716 25.3902 32.2553L25.6177 32.4562C26.0156 32.8076 26.0185 32.8111 25.9723 32.8986C25.9005 33.0344 25.4601 33.4495 25.2414 33.5875C24.7885 33.8732 24.3278 34.0053 23.8034 33.9998C23.62 33.9979 23.395 33.9825 23.3033 33.9656ZM1.6251 33.9341C1.45741 33.9191 1.22207 33.8841 1.10213 33.8563C0.866163 33.8016 0.0474521 33.5147 0.000873962 33.4704C-0.0207541 33.4498 0.365605 32.6761 0.432034 32.6069C0.438959 32.5997 0.636287 32.6698 0.870542 32.7627C1.41115 32.977 1.64132 33.0125 2.3968 32.9982L2.75148 32.9915C2.91281 32.9884 3.07106 32.9468 3.21303 32.8701V32.8701C3.47044 32.7311 3.5805 32.587 3.5805 32.3891C3.5805 32.0598 3.36255 31.9564 2.17038 31.7203C0.639342 31.417 0.17303 31.1362 0.0470929 30.4417C-0.0802552 29.7394 0.453357 29.1025 1.39838 28.8289C1.63686 28.7598 1.73131 28.7522 2.34679 28.7529C3.00394 28.7535 3.04642 28.7576 3.44713 28.8595C4.00886 29.0022 4.23327 29.0837 4.22003 29.1402C4.18567 29.2865 3.89754 29.9109 3.85722 29.9264C3.83071 29.9366 3.67731 29.9045 3.51633 29.8551C3.08079 29.7215 2.7451 29.6716 2.2734 29.6703C1.47497 29.6681 1.13126 29.8213 1.13126 30.1795C1.13126 30.2906 1.15103 30.3287 1.25597 30.4194C1.41079 30.5532 1.55549 30.5988 2.41347 30.7841C3.23328 30.9612 3.58019 31.0665 3.91606 31.2402C4.20375 31.389 4.41343 31.5754 4.52237 31.7793C4.58964 31.9051 4.59748 31.9668 4.59748 32.37C4.59748 32.8105 4.59516 32.8249 4.48872 33.0424C4.14141 33.7524 3.12735 34.0681 1.6251 33.9341ZM6.70458 33.8137C6.67144 33.8051 6.63212 33.7656 6.6172 33.7259C6.51485 33.4535 5.24418 28.8594 5.25988 28.8185C5.27668 28.7747 5.35679 28.7685 5.80312 28.7763V28.7763C6.11316 28.7818 6.38221 28.9917 6.46289 29.2911L6.68607 30.1193C7.24713 32.2013 7.28948 32.3478 7.3161 32.2986C7.32961 32.2737 7.56212 31.4929 7.83278 30.5636C8.10344 29.6343 8.33585 28.8562 8.34924 28.8346C8.36575 28.8079 8.51657 28.7936 8.81719 28.7903V28.7903C9.07965 28.7875 9.31211 28.9592 9.38648 29.211L9.42334 29.3357C10.039 31.4193 10.293 32.257 10.3167 32.2823C10.3482 32.3158 10.3279 32.3834 10.7204 30.9362C10.8869 30.3218 11.0866 29.5866 11.164 29.3023L11.1775 29.2526C11.2529 28.9757 11.5019 28.7818 11.7887 28.7763V28.7763C12.0549 28.7713 12.3029 28.7788 12.3399 28.793C12.404 28.8177 12.3759 28.9277 11.7169 31.2363C11.3373 32.5659 11.0166 33.695 11.0041 33.7454V33.7454C10.9909 33.7992 10.9425 33.837 10.8871 33.837L10.6237 33.8367C10.4269 33.8367 10.1447 33.8271 9.99648 33.8156V33.8156C9.83465 33.803 9.69789 33.6907 9.65399 33.5344L9.33736 32.407C9.12302 31.644 8.9202 30.9295 8.88665 30.8195V30.8195C8.868 30.7583 8.7816 30.7578 8.7622 30.8187L8.67172 31.1029C8.54005 31.5165 8.03231 33.2603 7.91686 33.6954V33.6954C7.89473 33.7788 7.81896 33.8367 7.73265 33.8361L7.32204 33.8332C7.01557 33.8311 6.73771 33.8223 6.70458 33.8137ZM13.6503 31.298V29.3116C13.6503 29.0094 13.9006 28.7672 14.2027 28.7772V28.7772C14.5065 28.7873 14.7626 28.8031 14.7719 28.8124C14.7812 28.8217 14.7976 29.956 14.8084 31.3332L14.8233 33.2483C14.8258 33.5727 14.5635 33.8371 14.2391 33.8371V33.8371V33.8371C13.9139 33.8371 13.6503 33.5735 13.6503 33.2483V31.298ZM17.6182 31.8531V30.6694C17.6182 30.2275 17.2599 29.8692 16.8179 29.8692V29.8692H16.5679C16.264 29.8692 16.0177 29.6229 16.0177 29.319V29.319V29.319C16.0177 29.0152 16.264 28.7688 16.5679 28.7688H17.2126C17.8699 28.7688 18.838 28.7788 19.3641 28.7909L19.8009 28.801C20.0884 28.8076 20.3166 29.0452 20.3115 29.3327V29.3327V29.3327C20.3064 29.623 20.0729 29.8574 19.7826 29.8636L19.5188 29.8692V29.8692C19.0828 29.8785 18.7337 30.2335 18.7318 30.6696L18.7266 31.8615L18.7204 33.2872C18.7191 33.5913 18.4722 33.8371 18.1681 33.8371V33.8371V33.8371C17.8644 33.8371 17.6182 33.5909 17.6182 33.2872V31.8531ZM27.1878 31.303V29.3023C27.1878 29.0077 27.4267 28.7688 27.7213 28.7688V28.7688V28.7688C28.016 28.7688 28.2548 29.0077 28.2548 29.3023V29.7692V29.7692C28.2548 30.3216 28.7027 30.7695 29.2551 30.7695H29.4218H29.5886C30.141 30.7695 30.5889 30.3216 30.5889 29.7692V29.7692V29.0773C30.5889 28.907 30.727 28.769 30.8973 28.7692V28.7692C31.0669 28.7692 31.307 28.779 31.4308 28.7907V28.7907C31.5584 28.8027 31.6559 28.9098 31.6559 29.038V31.3246V33.3037C31.6559 33.5983 31.417 33.8372 31.1224 33.8372V33.8372V33.8372C30.8277 33.8372 30.5889 33.5983 30.5889 33.3037V32.8369V32.8369C30.5889 32.2844 30.141 31.8366 29.5886 31.8366H29.4218H29.2551C28.7027 31.8366 28.2548 32.2844 28.2548 32.8369V32.8369V33.3037C28.2548 33.5983 28.016 33.8372 27.7213 33.8372V33.8372V33.8372C27.4267 33.8372 27.1878 33.5983 27.1878 33.3037V31.3031V31.303ZM29.9811 27.4236C29.4379 27.2385 29.1106 26.8597 29.0157 26.3064C28.8835 25.5356 29.3997 24.8064 30.1801 24.6613C30.4215 24.6164 30.7862 24.6819 31.0707 24.8212C31.3255 24.9459 31.6252 25.2679 31.725 25.5239C31.8231 25.7758 31.8335 26.3342 31.7445 26.5682C31.4726 27.2825 30.6863 27.664 29.9811 27.4236ZM30.7786 26.8068C31.1104 26.6375 31.2742 26.2836 31.1954 25.906C31.1422 25.6512 31.0117 25.4754 30.7884 25.3577C30.6238 25.271 30.5815 25.2628 30.3642 25.2762C30.0508 25.2955 29.8542 25.4101 29.7173 25.6535C29.5306 25.9856 29.5588 26.3158 29.7969 26.5863C30.0675 26.8938 30.4429 26.9781 30.7786 26.8068ZM0.179447 26.0894V25.026C0.179447 24.8651 0.310285 24.7349 0.471204 24.7356V24.7356V24.7356C0.654911 24.7364 0.827549 24.8235 0.93736 24.9708L1.39649 25.5866L1.52131 25.754C1.68569 25.9744 2.03604 25.8602 2.03892 25.5853V25.5853L2.04486 25.0171C2.0465 24.8604 2.17398 24.7343 2.33068 24.7343V24.7343V24.7343C2.48689 24.7343 2.61353 24.8609 2.61353 25.0171V26.066V27.2544C2.61353 27.3367 2.55327 27.4067 2.47182 27.4189V27.4189C2.39388 27.4306 2.27108 27.4353 2.19893 27.4293C2.06911 27.4185 2.06116 27.4095 1.43203 26.5582L1.29771 26.3765C1.13248 26.1529 0.777904 26.2634 0.76886 26.5412V26.5412C0.753765 27.005 0.736171 27.3896 0.729761 27.3961C0.723352 27.4025 0.596909 27.416 0.448777 27.4262V27.4262C0.303106 27.4362 0.179447 27.3207 0.179447 27.1747V26.0894ZM4.6475 26.0847V25.0177C4.6475 24.8612 4.77439 24.7343 4.93092 24.7343V24.7343V24.7343C5.08745 24.7343 5.21434 24.8612 5.21434 25.0177V26.0847V27.1517C5.21434 27.3082 5.08745 27.4351 4.93092 27.4351V27.4351V27.4351C4.77439 27.4351 4.6475 27.3082 4.6475 27.1517V26.0847ZM7.32846 27.4122C7.26239 27.3992 7.25738 27.3709 7.23677 26.8947C7.20416 26.1412 7.21047 24.9171 7.24748 24.8198C7.27861 24.7379 7.2911 24.7343 7.53924 24.7356V24.7356C7.70248 24.7365 7.85584 24.8139 7.95338 24.9448L8.41533 25.5647L8.94908 26.281C8.98022 26.3228 9.04628 26.3067 9.05473 26.2553V26.2553C9.06712 26.1798 9.07837 25.8067 9.07973 25.4261L9.08119 25.0177C9.08175 24.861 9.20893 24.7343 9.36563 24.7343V24.7343V24.7343C9.52216 24.7343 9.64905 24.8612 9.64905 25.0177V26.0847V27.1751C9.64905 27.3187 9.53266 27.4351 9.38909 27.4351V27.4351V27.4351C9.2255 27.4351 9.07151 27.3579 8.9737 27.2267L8.4638 26.5432L8.3318 26.3662C8.15953 26.1352 7.79246 26.255 7.78959 26.5432V26.5432L7.78262 27.2439C7.78157 27.3491 7.69469 27.4331 7.58953 27.4306V27.4306C7.48438 27.4281 7.3669 27.4198 7.32846 27.4122ZM12.4166 26.3681V25.7561C12.4166 25.5048 12.2128 25.3011 11.9615 25.3011V25.3011H11.7604C11.6238 25.3011 11.5164 25.1843 11.5279 25.0481V25.0481C11.5397 24.909 11.5577 24.7815 11.5681 24.7647C11.5789 24.7473 12.0718 24.7343 12.7186 24.7343H13.5669C13.7235 24.7343 13.8503 24.8612 13.8503 25.0177V25.0177V25.0177C13.8503 25.1742 13.7235 25.3011 13.5669 25.3011H13.4169V25.3011C13.1775 25.3011 12.9834 25.4952 12.9834 25.7346V26.3681V27.1517C12.9834 27.3082 12.8565 27.4351 12.7 27.4351V27.4351V27.4351C12.5435 27.4351 12.4166 27.3082 12.4166 27.1517V26.3681ZM15.7843 26.0847V25.7846C15.7843 25.2045 16.2545 24.7343 16.8346 24.7343V24.7343H17.7391C17.8196 24.7343 17.8849 24.7996 17.8849 24.8801V24.8801C17.8849 24.9604 17.8756 25.0729 17.8641 25.1302V25.1302C17.852 25.1908 17.7988 25.2344 17.737 25.2345L17.3056 25.2348C17.0099 25.2348 16.666 25.2446 16.5415 25.2564V25.2564C16.4145 25.2684 16.3189 25.3775 16.3238 25.505L16.3248 25.5312V25.5312C16.3302 25.6732 16.446 25.7861 16.5881 25.7879L17.043 25.7937L17.5195 25.7997C17.6481 25.8014 17.7516 25.9061 17.7516 26.0348V26.0348V26.0348C17.7516 26.1634 17.6481 26.2682 17.5195 26.2698L17.043 26.2758L16.643 26.2809C16.4705 26.2831 16.3302 26.4208 16.3249 26.5933V26.5933V26.5933C16.3196 26.762 16.455 26.9017 16.6239 26.9017H17.1001H17.6182C17.7655 26.9017 17.8849 27.0211 17.8849 27.1684V27.1684V27.1684C17.8849 27.3158 17.7655 27.4352 17.6182 27.4352H16.8346V27.4352C16.2545 27.4352 15.7843 26.9649 15.7843 26.3849V26.0848V26.0847ZM20.1769 27.4112V27.4112C20.1241 27.4032 20.0851 27.3576 20.0855 27.3041L20.0936 26.0741L20.1005 25.0178C20.1015 24.8687 20.22 24.7468 20.369 24.7416V24.7416V24.7416C20.5362 24.7358 20.6957 24.812 20.7962 24.9457L21.2693 25.5752L21.397 25.7451C21.5612 25.9635 21.9089 25.8494 21.9118 25.5762V25.5762L21.9175 25.0338C21.9192 24.8678 22.0543 24.7343 22.2202 24.7343V24.7343V24.7343C22.3856 24.7343 22.5197 24.8684 22.5197 25.0338V26.0847V27.16C22.5197 27.3117 22.3964 27.4346 22.2446 27.4339V27.4339V27.4339C22.0715 27.4332 21.9089 27.3508 21.8059 27.2116L21.311 26.5428L21.1825 26.3692C21.014 26.1414 20.6525 26.2607 20.6525 26.544V26.544V27.2433C20.6525 27.3484 20.5658 27.4328 20.4607 27.4301V27.4301C20.3553 27.4274 20.2276 27.4188 20.1769 27.4112ZM24.787 26.0807L24.787 25.4265C24.787 25.0385 25.1077 24.7272 25.4956 24.7387V24.7387C26.2619 24.7616 26.369 24.7828 26.6316 24.9635C27.074 25.2679 27.3208 25.817 27.2265 26.2869C27.1455 26.69 26.936 27.0008 26.6164 27.1919C26.3287 27.364 26.1115 27.4063 25.4123 27.4261V27.4261C25.0699 27.4358 24.7871 27.1609 24.7871 26.8184L24.787 26.0807ZM25.9369 26.8351C25.9369 26.8352 25.937 26.8352 25.937 26.8352C26.373 26.7638 26.6093 26.5332 26.6445 26.1449C26.6587 25.9882 26.6472 25.9139 26.5874 25.7748C26.4405 25.4333 26.1736 25.3011 25.6313 25.3011V25.3011C25.4597 25.3011 25.3206 25.4402 25.3206 25.6118V26.0847V26.6599C25.3206 26.7749 25.4139 26.8681 25.529 26.8679V26.8679C25.6436 26.8679 25.8271 26.853 25.9369 26.8351C25.9369 26.8351 25.9369 26.8351 25.9369 26.8351V26.8351ZM10.566 21.4334C9.77445 21.4079 9.47623 21.35 8.84141 21.0986C7.11164 20.4134 5.94053 19.1001 5.44701 17.2921C5.35841 16.9675 5.33994 16.8272 5.31401 16.2816C5.27186 15.3951 5.27343 5.73853 5.31582 5.1153C5.37141 4.29818 5.50871 3.79466 5.88058 3.04421C6.60169 1.589 7.88613 0.57311 9.55712 0.136369V0.136369C9.78422 0.0770126 10.0179 0.0465258 10.2526 0.0456296L12.7167 0.0362218C14.5206 0.0293344 15.5522 0.0372288 15.5842 0.0581649C15.6285 0.0871195 15.6342 1.30943 15.6342 10.727C15.6342 19.4075 15.6263 21.3712 15.5909 21.4066C15.5563 21.4412 15.1158 21.4505 13.4069 21.4529C12.2295 21.4545 10.9511 21.4457 10.566 21.4334ZM13.8837 10.7413V3.37547C13.8837 2.46271 13.1375 1.72609 12.2248 1.73783V1.73783C11.3125 1.74956 10.4243 1.77562 10.2512 1.79572C9.84588 1.84279 9.47873 1.95883 9.08095 2.16557C8.14075 2.65421 7.46922 3.47621 7.16445 4.51152V4.51152C7.10587 4.71051 7.0749 4.91661 7.0724 5.12404L7.04546 7.36222C7.01379 9.99455 7.03382 14.986 7.08066 16.1316C7.10407 16.7042 7.1181 16.8156 7.19823 17.0652C7.52479 18.0825 8.18077 18.8551 9.11196 19.319C9.44814 19.4865 9.83578 19.618 10.1454 19.6696C10.2667 19.6898 11.0637 19.7172 11.9164 19.7305C12.7692 19.7438 13.5607 19.7572 13.6753 19.7603V19.7603C13.7895 19.7635 13.8837 19.6718 13.8837 19.5576V10.7413ZM10.0641 8.38243C9.78979 8.29652 9.49714 8.11062 9.24535 7.86238C9.03797 7.65791 8.96195 7.55205 8.82856 7.28199V7.28199C8.72126 7.06475 8.66581 6.82558 8.66658 6.58329L8.66695 6.46507C8.66835 6.02468 8.67665 5.9571 8.7544 5.75367C8.94924 5.24388 9.24488 4.90837 9.71458 4.66401C10.0415 4.49393 10.2949 4.42797 10.6214 4.42797C10.9726 4.42797 11.1825 4.47661 11.5137 4.63478C12.0367 4.88454 12.4523 5.39836 12.5995 5.97712C12.6644 6.23251 12.6642 6.69355 12.599 6.94368C12.4302 7.59161 11.9118 8.12896 11.2285 8.36403C11.0778 8.41589 10.9532 8.42876 10.6191 8.42698C10.3796 8.42571 10.1412 8.40657 10.0641 8.38243ZM17.864 21.4283C17.7979 21.3258 17.7667 11.9007 17.8071 4.23718L17.8234 1.14807C17.8266 0.527971 18.323 0.0231978 18.943 0.00952288V0.00952288C20.4005 -0.0226277 21.9837 0.0294727 22.392 0.123027C23.889 0.466027 25.1264 1.34398 25.9237 2.62872C26.36 3.33194 26.6335 4.14702 26.6896 4.91146C26.7299 5.46042 26.7279 15.7375 26.6874 16.4484C26.652 17.0706 26.5915 17.3762 26.4099 17.8512C25.9789 18.9786 25.1908 19.9583 24.2036 20.5939C23.6576 20.9454 22.9416 21.2319 22.263 21.3703C21.9212 21.44 21.8007 21.4445 19.898 21.4585C18.2382 21.4708 17.888 21.4656 17.864 21.4283ZM22.4987 13.9146C23.1653 13.7733 23.7655 13.2484 24.0415 12.5652C24.2685 12.0031 24.2028 11.2497 23.8788 10.7C23.7048 10.4046 23.345 10.0664 23.0327 9.90454C22.696 9.73 22.4223 9.66391 22.0362 9.66391C21.4461 9.66391 20.983 9.84698 20.5577 10.2483C20.1295 10.6524 19.9317 11.0733 19.8963 11.6561C19.8703 12.0836 19.925 12.3946 20.0837 12.7217C20.3137 13.1957 20.659 13.5303 21.1605 13.765C21.5679 13.9556 22.0503 14.0096 22.4987 13.9146Z" fill="white"/>
</svg>
