<svg width="50" height="34" viewBox="0 0 50 34" fill="none" xmlns="http://www.w3.org/2000/svg">
<path d="M3.2233 23.0027H0.0241536C0.0181864 23.0026 0.0124212 23.0048 0.00796111 23.0088C0.00350107 23.0128 0.000662923 23.0182 0 23.0242V30.504C0 30.5104 0.00254668 30.5166 0.00707654 30.5211C0.0116064 30.5256 0.0177474 30.5282 0.0241536 30.5282H1.32045L1.34192 30.504V23.8347H2.82609C3.36286 23.8347 3.66344 24.3714 3.66344 25.3672C3.66344 26.3629 3.36554 26.8996 2.82609 26.8996H1.93237C1.92931 26.8996 1.92628 26.9002 1.92348 26.9015C1.92069 26.9027 1.91819 26.9045 1.91615 26.9068C1.91412 26.9091 1.9126 26.9118 1.91169 26.9147C1.91078 26.9177 1.91051 26.9207 1.9109 26.9238V27.6914C1.91051 27.6944 1.91078 27.6975 1.91169 27.7004C1.9126 27.7033 1.91412 27.706 1.91615 27.7083C1.91819 27.7106 1.92069 27.7124 1.92348 27.7137C1.92628 27.7149 1.92931 27.7155 1.93237 27.7155H3.21256C3.44346 27.7116 3.67091 27.6589 3.87998 27.5608C4.08906 27.4628 4.27503 27.3216 4.42566 27.1465C4.82911 26.6439 5.03439 26.0109 5.00269 25.3672C5.00269 23.9367 4.30489 23.0107 3.21525 23.0107" fill="white"/>
<path d="M7.131 23H5.83471C5.82874 23 5.82297 23.0021 5.81851 23.0061C5.81405 23.0101 5.81121 23.0155 5.81055 23.0215V30.5013C5.81055 30.5045 5.81118 30.5077 5.81239 30.5106C5.8136 30.5135 5.81538 30.5162 5.81762 30.5184C5.81987 30.5207 5.82253 30.5225 5.82546 30.5237C5.82839 30.5249 5.83154 30.5255 5.83471 30.5255H7.131L7.15516 30.5013V23.0215L7.131 23Z" fill="white"/>
<path d="M12.7859 24.8191C12.7859 24.8127 12.7833 24.8065 12.7788 24.802C12.7743 24.7975 12.7681 24.7949 12.7617 24.7949H10.4536C8.38167 24.7949 8.11865 26.314 8.11865 27.6505V28.8046C8.11865 29.7976 8.73594 30.5196 9.58671 30.5196H10.8454L10.8669 30.4954V29.7198C10.867 29.7138 10.8648 29.708 10.8608 29.7036C10.8568 29.6991 10.8514 29.6963 10.8454 29.6956H9.94635C9.73969 29.6956 9.46057 29.6044 9.46057 28.8905V27.6425C9.46057 26.8132 9.53572 26.2845 9.71017 25.9812C9.78338 25.8522 9.89287 25.7476 10.025 25.6803C10.1572 25.613 10.3062 25.5861 10.4536 25.6028H11.4386V30.4793C11.4386 30.4857 11.4411 30.4918 11.4456 30.4964C11.4502 30.5009 11.4563 30.5035 11.4627 30.5035H12.7563C12.7627 30.5035 12.7689 30.5009 12.7734 30.4964C12.7779 30.4918 12.7805 30.4857 12.7805 30.4793" fill="white"/>
<path d="M22.1148 26.1294L21.4761 26.0811C20.9983 26.0408 20.6414 25.7751 20.6414 24.9887C20.6414 24.0735 21.052 23.8213 21.5995 23.8213H23.3682L23.3923 23.7998V23.0215L23.3682 23H21.417C20.212 23 19.3531 23.7085 19.3531 25.1202V25.182C19.3531 26.2958 20.0375 27.1009 21.0601 27.1788L21.6961 27.2271C22.1819 27.2646 22.4825 27.6967 22.4825 28.3543V28.5394C22.4825 28.9501 22.3805 29.7042 21.4975 29.7042H19.6591C19.6527 29.7042 19.6466 29.7068 19.642 29.7113C19.6375 29.7159 19.6349 29.722 19.6349 29.7284V30.5013L19.6591 30.5255H21.9404C22.6435 30.5255 23.8191 30.241 23.8191 28.3301C23.8542 27.7468 23.6863 27.1693 23.344 26.6956C23.191 26.5197 23.0022 26.3784 22.7902 26.2812C22.5783 26.1841 22.348 26.1332 22.1148 26.132" fill="white"/>
<path d="M32.7348 24.8191C32.7348 24.8127 32.7323 24.8065 32.7277 24.802C32.7232 24.7975 32.7171 24.7949 32.7107 24.7949H30.3972C28.3306 24.7949 28.0623 26.314 28.0623 27.6505V28.8046C28.0623 29.7976 28.6795 30.5196 29.5357 30.5196H30.7917L30.8159 30.4954V29.7198C30.8159 29.7166 30.8152 29.7135 30.814 29.7105C30.8128 29.7076 30.811 29.7049 30.8088 29.7027C30.8066 29.7004 30.8039 29.6987 30.801 29.6975C30.798 29.6963 30.7949 29.6956 30.7917 29.6956H29.89C29.6833 29.6956 29.4068 29.6044 29.4068 28.8905V27.6425C29.4068 26.8132 29.4847 26.2845 29.6538 25.9812C29.7268 25.8527 29.8359 25.7483 29.9675 25.6811C30.0991 25.6138 30.2476 25.5866 30.3945 25.6028H31.3822V30.4793C31.3822 30.4857 31.3847 30.4918 31.3892 30.4964C31.3938 30.5009 31.3999 30.5035 31.4063 30.5035H32.7026C32.7057 30.5035 32.7087 30.5028 32.7115 30.5016C32.7143 30.5004 32.7168 30.4985 32.7188 30.4962C32.7209 30.494 32.7224 30.4913 32.7233 30.4884C32.7242 30.4854 32.7245 30.4823 32.7241 30.4793" fill="white"/>
<path d="M27.5255 24.7985H26.1191V23.8564C26.1195 23.8534 26.1193 23.8503 26.1184 23.8474C26.1175 23.8445 26.1159 23.8418 26.1139 23.8395C26.1119 23.8372 26.1094 23.8354 26.1066 23.8341C26.1038 23.8329 26.1007 23.8323 26.0977 23.8323H24.8014C24.795 23.8323 24.7888 23.8348 24.7843 23.8394C24.7798 23.8439 24.7772 23.85 24.7772 23.8564V28.8189C24.7772 29.8119 25.3972 30.5338 26.2507 30.5338H27.1793C27.1824 30.5338 27.1856 30.5332 27.1885 30.532C27.1915 30.5308 27.1941 30.529 27.1964 30.5268C27.1986 30.5245 27.2004 30.5218 27.2016 30.5189C27.2028 30.516 27.2034 30.5129 27.2034 30.5097V29.7367C27.2034 29.7336 27.2028 29.7304 27.2016 29.7275C27.2004 29.7246 27.1986 29.7219 27.1964 29.7196C27.1941 29.7174 27.1915 29.7156 27.1885 29.7144C27.1856 29.7132 27.1824 29.7126 27.1793 29.7126H26.6103C26.4654 29.7126 26.1218 29.7126 26.1218 28.9718V25.6197H27.5282L27.5496 25.5982V24.8199C27.5497 24.814 27.5475 24.8082 27.5435 24.8037C27.5396 24.7993 27.5341 24.7964 27.5282 24.7958" fill="white"/>
<path d="M36.5727 24.7985H35.1744V23.8564L35.153 23.8323H33.854C33.8476 23.8323 33.8414 23.8348 33.8369 23.8394C33.8324 23.8439 33.8298 23.85 33.8298 23.8564V28.8189C33.8298 29.8119 34.4471 30.5338 35.3006 30.5338H36.2292C36.2356 30.5338 36.2417 30.5313 36.2463 30.5268C36.2508 30.5222 36.2533 30.5161 36.2533 30.5097V29.7367C36.2533 29.7303 36.2508 29.7242 36.2463 29.7196C36.2417 29.7151 36.2356 29.7126 36.2292 29.7126H35.6548C35.5072 29.7126 35.1691 29.7126 35.1691 28.9718V25.6197H36.57L36.5942 25.5982V24.8199C36.5942 24.8168 36.5936 24.8136 36.5924 24.8107C36.5911 24.8078 36.5894 24.8051 36.5871 24.8029C36.5849 24.8006 36.5822 24.7988 36.5793 24.7976C36.5764 24.7964 36.5732 24.7958 36.57 24.7958" fill="white"/>
<path d="M38.7145 24.7976H37.4182C37.4118 24.7976 37.4056 24.8002 37.4011 24.8047C37.3966 24.8092 37.394 24.8154 37.394 24.8218V30.5035L37.4182 30.5276H38.7145C38.7209 30.5276 38.727 30.5251 38.7316 30.5205C38.7361 30.516 38.7387 30.5099 38.7387 30.5035V24.8191C38.7387 24.8127 38.7361 24.8065 38.7316 24.802C38.727 24.7975 38.7209 24.7949 38.7145 24.7949" fill="white"/>
<path d="M38.7145 23H37.4182L37.394 23.0215V24.095C37.394 24.1014 37.3966 24.1076 37.4011 24.1121C37.4056 24.1166 37.4118 24.1192 37.4182 24.1192H38.7145C38.7178 24.1196 38.7211 24.1193 38.7242 24.1182C38.7274 24.1172 38.7302 24.1154 38.7326 24.1131C38.7349 24.1107 38.7367 24.1079 38.7377 24.1048C38.7388 24.1016 38.7391 24.0983 38.7387 24.095V23.0215C38.738 23.0155 38.7352 23.0101 38.7307 23.0061C38.7262 23.0021 38.7205 23 38.7145 23Z" fill="white"/>
<path d="M47.6785 24.7981H45.3677C45.3617 24.7988 45.3563 24.8016 45.3523 24.8061C45.3483 24.8105 45.3462 24.8163 45.3462 24.8222V30.5039L45.3677 30.5281H46.6586L46.6801 30.5039V25.6247H47.665C47.8098 25.6079 47.9564 25.6318 48.0883 25.694C48.2201 25.7561 48.332 25.8539 48.4112 25.9763C48.5829 26.2447 48.6607 26.7439 48.6607 27.5142C48.6607 27.5464 48.6607 30.512 48.6607 30.512C48.6607 30.5152 48.6614 30.5183 48.6626 30.5212C48.6638 30.5242 48.6656 30.5268 48.6678 30.5291C48.6701 30.5313 48.6727 30.5331 48.6757 30.5343C48.6786 30.5355 48.6817 30.5361 48.6849 30.5361H49.9758C49.979 30.5361 49.9821 30.5355 49.9851 30.5343C49.988 30.5331 49.9907 30.5313 49.9929 30.5291C49.9951 30.5268 49.9969 30.5242 49.9981 30.5212C49.9994 30.5183 50 30.5152 50 30.512V27.6537C50 26.3118 49.7316 24.7981 47.6677 24.7981" fill="white"/>
<path d="M42.8637 29.326C42.7629 29.4457 42.6372 29.5419 42.4953 29.6079C42.3535 29.6739 42.1989 29.7081 42.0424 29.7081C41.8859 29.7081 41.7314 29.6739 41.5895 29.6079C41.4476 29.5419 41.3219 29.4457 41.2211 29.326C41.036 29.0227 40.9528 28.494 40.9528 27.6593C40.9528 26.6744 41.0735 26.1134 41.3446 25.8477C41.5489 25.7003 41.7945 25.621 42.0464 25.621C42.2984 25.621 42.5439 25.7003 42.7483 25.8477C43.0166 26.1161 43.1374 26.677 43.1374 27.6674C43.1374 28.502 43.0515 29.0334 42.869 29.334M42.0478 24.8064C39.8846 24.8064 39.6082 26.3335 39.6082 27.6701C39.6082 29.0066 39.8765 30.5391 42.0478 30.5391C44.219 30.5391 44.4874 29.0066 44.4874 27.6701C44.4874 26.3335 44.219 24.8064 42.0478 24.8064Z" fill="white"/>
<path d="M13.5184 24.7981L13.5023 24.8196L15.424 30.4556C15.4278 30.4706 15.4278 30.4863 15.424 30.5013L14.3504 33.2871C14.3504 33.2871 14.3504 33.3112 14.3638 33.3112H15.491C15.4982 33.3107 15.505 33.3081 15.5107 33.3038C15.5164 33.2996 15.5207 33.2938 15.5233 33.2871L18.8968 24.8276C18.8968 24.8142 18.8968 24.8061 18.8834 24.8061H17.6462C17.6393 24.8061 17.6326 24.8082 17.6268 24.812C17.6211 24.8158 17.6166 24.8213 17.614 24.8276L16.1862 28.526H16.1701L14.9087 24.8276C14.9065 24.8215 14.9025 24.8161 14.8972 24.8123C14.892 24.8085 14.8857 24.8063 14.8791 24.8061" fill="white"/>
<path d="M21.5326 0V18.3601L25.6917 19.679V4.28135C25.6917 3.55655 26.0162 3.07617 26.5345 3.24051C27.213 3.43014 27.3436 4.0833 27.3436 4.81231V10.9604C29.931 12.2246 31.9789 10.9604 31.9789 7.65671C31.9789 4.28557 30.7864 2.77698 27.2677 1.56758C25.3911 0.933747 23.4789 0.410324 21.541 0" fill="white"/>
<path d="M26.4797 16.9946L33.1588 14.6179C33.9131 14.3398 34.0311 13.9563 33.4201 13.7751C32.5929 13.5822 31.728 13.6275 30.9254 13.9058L26.4797 15.4733V12.9703L26.7326 12.886C27.7392 12.5603 28.7774 12.3414 29.8298 12.2328C31.7768 12.0328 33.7439 12.2659 35.5902 12.9155C37.5497 13.5391 37.7688 14.4451 37.2758 15.0772C36.7828 15.7093 35.5523 16.156 35.5523 16.156L26.4797 19.4134" fill="white"/>
<path d="M13.9138 16.7419C11.9037 16.1814 11.5666 14.9973 12.4853 14.3146C13.1976 13.8524 13.9667 13.4841 14.7734 13.219L20.7277 11.1121V13.5308L16.4464 15.0647C15.6878 15.3344 15.5741 15.7179 16.1851 15.9075C17.0086 16.1068 17.8723 16.0629 18.6713 15.7811L20.7319 15.0394V17.197L20.3105 17.2644C18.1682 17.6159 15.9725 17.4394 13.9138 16.7503" fill="white"/>
</svg>
