<svg width="35" height="30" viewBox="0 0 35 30" fill="none" xmlns="http://www.w3.org/2000/svg">
<path d="M17.3543 0C12.9259 0 9.29802 3.41723 8.95328 7.76L13.4717 9.62958C13.8545 9.36754 14.317 9.21401 14.8146 9.21401C14.8592 9.21401 14.9036 9.21554 14.9476 9.21802L16.957 6.30332C16.957 6.2894 16.9568 6.27586 16.9568 6.26213C16.9568 4.50774 18.3828 3.08043 20.136 3.08043C21.8891 3.08043 23.3151 4.50774 23.3151 6.26213C23.3151 8.01651 21.8891 9.44401 20.136 9.44401C20.1118 9.44401 20.0878 9.44344 20.0638 9.44287L17.198 11.4892C17.1996 11.5264 17.2009 11.5644 17.2009 11.6021C17.2009 12.9192 16.1305 13.9903 14.8146 13.9903C13.6596 13.9903 12.6938 13.1652 12.475 12.0726L9.24371 10.7357C10.2442 14.2769 13.4951 16.8731 17.3543 16.8731C22.0103 16.8731 25.7845 13.0958 25.7845 8.43685C25.7845 3.77711 22.0101 0 17.3543 0Z" fill="white"/>
<path d="M14.236 12.8012L13.2005 12.373C13.384 12.7554 13.7015 13.0756 14.123 13.2514C15.0343 13.6314 16.0849 13.1986 16.4647 12.2859C16.6486 11.8445 16.6498 11.3573 16.4674 10.9148C16.2854 10.4722 15.942 10.127 15.5005 9.94273C15.0623 9.76022 14.593 9.76689 14.1806 9.92271L15.2502 10.3654C15.9224 10.6457 16.2402 11.4181 15.9601 12.0908C15.6805 12.7636 14.9082 13.0817 14.236 12.8012Z" fill="white"/>
<path d="M22.2542 6.26213C22.2542 5.09323 21.304 4.14214 20.1358 4.14214C18.9678 4.14214 18.0175 5.09323 18.0175 6.26213C18.0175 7.43121 18.9678 8.38192 20.1358 8.38192C21.304 8.38173 22.2542 7.43102 22.2542 6.26213ZM18.548 6.2585C18.548 5.37892 19.2606 4.66603 20.1395 4.66603C21.0184 4.66603 21.7309 5.37892 21.7309 6.2585C21.7309 7.13808 21.0184 7.85097 20.1395 7.85097C19.2606 7.85097 18.548 7.13789 18.548 6.2585Z" fill="white"/>
<path d="M4.53782 24.0491L3.97297 25.0427C3.5379 24.7386 2.94829 24.5555 2.43356 24.5555C1.84528 24.5555 1.48129 24.7992 1.48129 25.2357C1.48129 25.7661 2.12789 25.8895 3.08893 26.2347C4.122 26.6003 4.7158 27.03 4.7158 27.9769C4.7158 29.2724 3.69779 30 2.23461 30C1.5215 30 0.661272 29.8158 0 29.4132L0.412011 28.3116C0.949223 28.5956 1.59182 28.764 2.16467 28.764C2.93685 28.764 3.30388 28.4789 3.30388 28.0574C3.30388 27.5751 2.74419 27.4301 1.8407 27.1307C0.81106 26.7866 0.0975723 26.3352 0.0975723 25.2872C0.0975723 24.1054 1.04336 23.4266 2.40421 23.4266C3.35267 23.4266 4.11494 23.7274 4.53782 24.0491Z" fill="white"/>
<path d="M8.95328 24.6771V29.8911H7.62331V24.6771H5.69285V23.5355H10.878V24.6771H8.95328Z" fill="white"/>
<path d="M13.6817 24.6737V26.1058H16.2269V27.2474H13.6817V28.739H16.6347V29.8911H12.3521V23.5355H16.6347V24.6737H13.6817Z" fill="white"/>
<path d="M19.6032 28.6572L19.1828 29.8913H17.7886L20.1698 23.5357H21.5085L23.9569 29.8911H22.5157L22.0861 28.657L19.6032 28.6572ZM20.8316 25.0517L19.9643 27.5964H21.7168L20.8316 25.0517Z" fill="white"/>
<path d="M30.7825 25.9921L29.0445 29.7059H28.2941L26.5843 26.0253V29.8911H25.3107V23.5355H26.5814L28.7158 28.1234L30.7743 23.5355H32.0561V29.8911H30.7827L30.7825 25.9921Z" fill="white"/>
<path d="M34.6272 24.3373C34.6272 24.8835 34.2183 25.2239 33.7489 25.2239C33.2778 25.2239 32.8679 24.8835 32.8679 24.3373C32.8679 23.7913 33.2778 23.4531 33.7489 23.4531C34.2185 23.4531 34.6272 23.7913 34.6272 24.3373ZM33.0156 24.3373C33.0156 24.7942 33.3445 25.0813 33.7489 25.0813C34.1518 25.0813 34.4794 24.7942 34.4794 24.3373C34.4794 23.879 34.1518 23.5964 33.7489 23.5964C33.3457 23.5964 33.0156 23.8824 33.0156 24.3373ZM33.7611 23.8855C33.9888 23.8855 34.0655 24.006 34.0655 24.1363C34.0655 24.2557 33.9947 24.3358 33.9086 24.3766L34.1127 24.7593H33.9456L33.7735 24.4201H33.5961V24.7593H33.457V23.8855H33.7611ZM33.7525 24.2921C33.853 24.2921 33.9122 24.229 33.9122 24.1496C33.9122 24.0695 33.8697 24.018 33.7522 24.018H33.5972V24.2921H33.7525Z" fill="white"/>
</svg>
