<svg width="38" height="30" viewBox="0 0 38 30" fill="none" xmlns="http://www.w3.org/2000/svg">
<path d="M9.41029 29.8118H7.6788L4.70514 25.7089L1.73149 29.8118H0L3.8394 24.5044L0.301129 19.611H2.03262L4.70514 23.2999L7.37767 19.611H9.10916L5.57089 24.5044L9.41029 29.8118ZM18.4065 26.9134C18.4065 27.8168 18.1054 28.532 17.5408 29.0213C16.9385 29.5483 16.1104 29.8118 15.0188 29.8118H10.2384V25.2572H7.97992L8.92095 23.9398H10.2384V19.611H14.8306C15.8469 19.611 16.6374 19.8745 17.202 20.3262C17.7666 20.8156 18.0301 21.4555 18.0301 22.2459C18.0301 23.2246 17.5784 23.9774 16.7127 24.4667C17.2773 24.6926 17.729 24.9937 17.9925 25.4078C18.256 25.8595 18.4065 26.3488 18.4065 26.9134ZM11.7817 23.9774H14.7177C15.3199 23.9774 15.734 23.8269 16.0351 23.601C16.3363 23.3375 16.4868 22.9611 16.4868 22.4341C16.4868 21.9824 16.3363 21.6437 16.0351 21.3802C15.734 21.1167 15.2823 21.0038 14.7177 21.0038H11.7817V23.9774ZM16.8256 26.8758C16.8256 26.3488 16.675 25.9348 16.3363 25.6713C16.0351 25.4078 15.5458 25.2572 14.9059 25.2572H11.7817V28.4567H14.9059C15.5458 28.4567 15.9975 28.3061 16.3363 28.0427C16.675 27.7792 16.8256 27.4028 16.8256 26.8758ZM28.8708 24.6926C28.8708 25.4831 28.7578 26.1982 28.532 26.8381C28.3061 27.478 27.9674 28.0427 27.5157 28.532C27.064 29.0213 26.537 29.3977 25.9348 29.6236C25.3325 29.8494 24.655 30 23.9021 30C23.1493 30 22.4718 29.8871 21.8695 29.6236C21.2673 29.3977 20.7403 29.0213 20.2886 28.532C19.8369 28.0427 19.4981 27.478 19.2723 26.8381C19.0464 26.1982 18.9335 25.4831 18.9335 24.6926C18.9335 23.9021 19.0464 23.187 19.2723 22.5471C19.4981 21.9072 19.8369 21.3425 20.2886 20.8532C20.7403 20.3639 21.2673 19.9875 21.8695 19.7616C22.4718 19.5358 23.1493 19.3852 23.9021 19.3852C24.655 19.3852 25.3325 19.4981 25.9348 19.7616C26.537 19.9875 27.064 20.3639 27.5157 20.8532C27.9674 21.3425 28.3061 21.9072 28.532 22.5471C28.7578 23.187 28.8708 23.9398 28.8708 24.6926ZM20.5521 24.6926C20.5521 25.8971 20.8532 26.8381 21.4931 27.5533C22.0954 28.2685 22.9235 28.6073 23.9398 28.6073C24.9561 28.6073 25.7842 28.2309 26.3864 27.5533C26.9887 26.8758 27.2898 25.8971 27.2898 24.6926C27.2898 23.4881 26.9887 22.5094 26.3864 21.8319C25.7842 21.1167 24.9561 20.7779 23.9398 20.7779C22.9235 20.7779 22.0954 21.1167 21.4931 21.8319C20.8532 22.5471 20.5521 23.5257 20.5521 24.6926ZM33.8018 24.5044L37.34 19.611H35.6085L32.936 23.2999L30.2635 19.611H28.532L32.0703 24.5044L28.1932 29.8118H29.9247L32.8984 25.7089L35.872 29.8118H37.6035L33.8018 24.5044ZM18.8206 6.81305C21.3802 8.77039 25.7089 13.5132 24.3915 14.8683C22.8858 16.1857 20.9661 16.9762 18.8206 16.9762C16.675 16.9762 14.7177 16.1857 13.2497 14.8683C11.8946 13.5132 16.261 8.77039 18.8206 6.81305C18.7829 6.81305 18.7829 6.81305 18.8206 6.81305ZM23.2246 1.24216C21.9448 0.489335 20.5144 0 18.8206 0C17.1267 0 15.6964 0.451694 14.4166 1.24216C14.4166 1.24216 14.3789 1.2798 14.4166 1.2798H14.4542C16.1104 0.941029 18.5947 2.33375 18.8206 2.48432C19.0464 2.33375 21.5684 0.941029 23.1869 1.2798H23.2246C23.2622 1.2798 23.2246 1.2798 23.2246 1.24216ZM12.8733 2.44667C11.2923 4.0276 10.3137 6.13551 10.3137 8.5069C10.3137 10.4266 10.9536 12.2334 12.0452 13.6261C12.0452 13.6261 12.0828 13.6637 12.0828 13.6261V13.5885C11.4429 11.5935 14.7553 6.73777 16.4492 4.70514C16.4492 4.70514 16.4492 4.70514 16.4492 4.6675V4.62986C13.8896 2.1079 13.0238 2.37139 12.8733 2.44667ZM21.1167 4.6675C21.1167 4.70514 21.1167 4.70514 21.1167 4.70514C22.8105 6.73777 26.123 11.5935 25.4831 13.5885V13.6261H25.5207C26.6123 12.1957 27.2522 10.4266 27.2522 8.5069C27.2522 6.17315 26.3112 4.0276 24.7302 2.48432L24.6926 2.44667C24.6173 2.37139 23.7139 2.1079 21.1167 4.6675Z" fill="white"/>
</svg>
