<svg width="86" height="30" viewBox="0 0 86 30" fill="none" xmlns="http://www.w3.org/2000/svg">
<mask id="mask0_1365_133" style="mask-type:luminance" maskUnits="userSpaceOnUse" x="0" y="0" width="30" height="30">
<path d="M29.8817 0H0V30H29.8817V0Z" fill="white"/>
</mask>
<g mask="url(#mask0_1365_133)">
<mask id="mask1_1365_133" style="mask-type:luminance" maskUnits="userSpaceOnUse" x="0" y="0" width="30" height="30">
<path d="M29.8817 0H0V30H29.8817V0Z" fill="white"/>
</mask>
<g mask="url(#mask1_1365_133)">
<path d="M14.9408 30C23.1924 30 29.8817 23.2842 29.8817 15C29.8817 6.71572 23.1924 0 14.9408 0C6.68924 0 0 6.71572 0 15C0 23.2842 6.68924 30 14.9408 30Z" fill="#060D1F"/>
<path fill-rule="evenodd" clip-rule="evenodd" d="M20.0706 7.67392C20.0706 7.67392 20.0732 7.67392 20.0757 7.67392H20.0811C20.0811 7.67392 20.0838 7.67392 20.0863 7.67392H20.0916C20.1284 7.6713 20.1676 7.68182 20.2043 7.70024C20.241 7.7213 20.2724 7.75024 20.3039 7.78707C20.3327 7.82392 20.3588 7.8634 20.3799 7.9055C20.4009 7.94762 20.414 7.98972 20.4192 8.02919C20.4272 8.08181 20.4272 8.13446 20.4192 8.18182C20.4115 8.2292 20.3957 8.27393 20.3746 8.31077C20.3537 8.35024 20.3248 8.38181 20.2907 8.40551C20.2567 8.4292 20.2175 8.44498 20.1754 8.45288C20.1335 8.45814 20.0916 8.45288 20.0522 8.43708C20.013 8.4213 19.9762 8.39762 19.9422 8.36866C19.9081 8.33708 19.8793 8.29762 19.8582 8.25551C19.8347 8.21077 19.819 8.16077 19.8111 8.10814C19.8033 8.05024 19.8033 7.99762 19.8111 7.94762C19.819 7.89761 19.8347 7.85288 19.8582 7.8134C19.8819 7.77392 19.9106 7.74235 19.9474 7.71866C19.9815 7.69498 20.0233 7.6792 20.068 7.67656L20.0706 7.67392ZM14.9488 0.137085C13.722 0.137085 12.5268 0.289715 11.3865 0.573927C11.9842 1.57392 12.9672 2.3555 14.5975 2.39498C15.7299 2.58182 18.8937 3.19498 19.6853 4.9634C19.7245 4.96604 19.7612 4.9713 19.8007 4.97656C19.8714 4.98708 19.9395 5.00288 20.0103 5.02392C20.0785 5.04498 20.1467 5.06866 20.2175 5.09762C20.2856 5.12656 20.3537 5.16077 20.4244 5.19761C20.6027 5.29498 20.7601 5.40814 20.8989 5.53707C21.0351 5.66339 21.1558 5.80813 21.258 5.96603C21.3603 6.12392 21.4468 6.29498 21.5174 6.48182C21.5882 6.66866 21.646 6.87129 21.6878 7.08708C21.7351 7.32129 21.7481 7.55288 21.7376 7.77655C21.7246 8.00288 21.6826 8.21866 21.6171 8.4213C21.549 8.62656 21.4546 8.81603 21.3392 8.98181C21.2212 9.15023 21.0772 9.29498 20.9121 9.40813C20.87 9.43708 20.8282 9.4634 20.7836 9.48446C20.739 9.50814 20.6945 9.52919 20.6499 9.54761C20.6053 9.56603 20.5581 9.58181 20.5136 9.59762C20.4664 9.61078 20.4193 9.62392 20.372 9.63182H20.3563C21.2894 10.1371 23.0509 10.2239 23.916 10.1266C24.9696 10.0081 26.4219 10.8871 26.2173 11.4976C25.8346 12.6476 24.9959 12.745 24.2357 12.8449C23.8084 12.9002 23.4597 12.6213 23.0719 12.6554C22.7127 12.6871 22.4297 13.0608 22.1649 13.2581C22.0364 13.3528 20.739 13.9765 20.7363 13.8713C20.7363 14.3686 19.8636 14.874 19.0825 14.9766C18.8728 15.0028 18.663 15.0055 18.4638 14.9792C18.1807 14.9424 17.9081 14.887 17.6408 14.816C17.5017 14.874 17.3472 14.9318 17.182 14.9871C17.5385 15.5502 19.321 17.6792 19.6721 18.0186C20.9749 18.2082 23.4835 18.3976 24.5423 18.816C27.0536 19.8082 26.4533 20.5713 26.3878 20.9082C26.3692 21.0028 24.0259 23.3028 24.2042 23.4082C24.3903 23.5213 25.6668 24.816 24.5763 26.1002C24.3485 26.3713 22.9199 27.5134 21.1399 27.1818C21.1399 27.1818 20.3485 28.2082 19.6486 28.2082C19.6486 28.2082 20.8963 26.3608 21.0902 25.1134C21.4336 24.0554 21.1742 22.0002 16.6211 15.187C15.9553 15.3582 14.262 15.7897 13.1664 15.4266C13.3971 16.837 14.4901 20.6292 14.4795 20.8266C14.3983 20.6871 13.5255 20.0635 13.3787 19.9924C13.2895 19.9502 11.5333 21.7713 9.42853 21.6976C9.00913 21.6976 8.59761 21.6766 8.19132 21.6265C8.07337 21.6134 7.85842 22.8055 7.90562 23.3187C7.90562 23.3292 7.90298 23.3397 7.90038 23.3502C7.85581 23.3608 7.85057 23.3266 7.83484 23.3054C7.64874 23.0318 7.62252 22.716 7.49409 22.3844C6.84926 20.724 8.67625 20.4344 8.01046 18.4661C8.01046 18.4661 8.36432 18.687 8.47967 18.8476C8.62381 19.045 8.69983 19.2766 8.73391 19.5265C8.76798 19.7713 9.18738 18.5318 9.14282 18.6503C8.82042 17.5371 7.59106 16.9555 7.59106 16.9555C8.67362 16.7554 9.17951 17.6608 9.32892 17.8976C9.34989 17.6871 9.00128 15.3712 6.15728 14.8186C5.45217 14.6818 5.5308 16.1396 5.35781 16.837C5.35781 16.8476 5.34733 16.8554 5.33683 16.8766C5.2582 16.8318 5.22937 16.7582 5.20316 16.6844C5.10093 16.4082 5.12451 16.1082 5.19268 15.8028C5.21627 15.695 5.15335 15.6818 5.10355 15.5818C4.60813 14.5924 2.75234 14.6529 2.87029 14.766C3.45219 15.337 3.30278 19.9897 3.87419 21.295C3.95284 21.4713 5.25296 24.7477 5.6776 24.837C5.69856 24.8424 4.45088 25.2134 4.43776 25.2424C4.41941 25.2792 4.97512 25.6241 5.25296 25.745C6.47444 26.2766 7.81649 26.3608 9.28175 25.9818C10.0366 25.7871 10.7916 25.5818 11.5255 25.274C12.3512 24.9265 13.0773 24.445 13.6539 23.7634C13.6801 23.7344 13.7247 23.6977 13.785 23.6766C13.5936 24.3266 12.4717 28.2082 12.4193 28.2108C11.7954 28.2397 11.4364 26.3345 11.8164 26.3529C11.8164 26.3529 8.49275 27.6424 5.32111 26.2766C7.91086 28.5082 11.2738 29.8582 14.9461 29.8582C23.106 29.8582 29.7429 23.195 29.7429 15.0028C29.7429 6.81077 23.1085 0.137085 14.9488 0.137085ZM18.2044 4.94236H18.1362C18.0707 4.93972 18.0051 4.93707 17.937 4.93707C17.8715 4.93707 17.8032 4.93707 17.7351 4.93707C17.6354 4.93707 17.5333 4.93707 17.4311 4.93707C17.3288 4.93707 17.224 4.93707 17.1191 4.93707C17.0143 4.93707 16.9067 4.93707 16.7993 4.93707C16.692 4.93707 16.5818 4.93707 16.4717 4.93707V4.94236C16.3774 4.94236 16.283 4.94236 16.186 4.93972C16.0889 4.93972 15.9919 4.93972 15.8923 4.93972C15.7928 4.93972 15.6931 4.93972 15.5935 4.93972C15.494 4.93972 15.3917 4.93972 15.2895 4.93707C15.1873 4.93707 15.0825 4.93707 14.9776 4.93446C14.8728 4.93446 14.7653 4.93446 14.6578 4.93181C14.5504 4.93181 14.4403 4.93181 14.3327 4.9292C14.2227 4.9292 14.1126 4.92655 13.9999 4.92392H13.9921C13.9396 4.92392 13.8845 4.92392 13.8321 4.92655C13.7797 4.92655 13.7247 4.93181 13.6723 4.93972C13.6199 4.94498 13.5648 4.95288 13.5123 4.96078C13.4599 4.96866 13.4075 4.9792 13.3551 4.98972C12.9409 5.07655 12.5661 5.25814 12.2516 5.51077C11.9291 5.76866 11.6696 6.10287 11.4888 6.48182C11.3054 6.86866 11.2057 7.29761 11.2057 7.73971C11.2057 8.18708 11.3079 8.64235 11.5229 9.0713C11.6776 9.37919 11.8794 9.65288 12.1152 9.88446C12.3302 10.0976 12.574 10.2766 12.8335 10.4134C12.4587 10.3871 12.1283 10.4187 11.9554 10.595C10.6448 11.9265 11.9999 13.837 12.7391 14.1871C14.4692 15.0055 15.6513 14.1108 16.0208 14.2581L16.2069 14.3318C15.8531 14.5792 15.2606 15.0055 14.1519 15.0055C11.3105 15.0055 9.27125 12.5792 9.69588 10.595C9.89773 9.64498 11.2083 6.64762 9.55172 4.42919C9.58842 4.40024 10.823 3.75023 10.823 3.75023C9.78763 3.71866 8.49014 1.35287 9.68802 2.09762C10.1782 2.40288 10.8518 2.66077 11.4993 2.8634C10.7313 1.77129 11.0458 1.18971 11.0458 1.18971C11.722 3.0713 14.1546 3.2555 14.1546 3.2555C17.3655 3.52656 17.9134 4.38182 18.2069 4.95814L18.2044 4.94236ZM19.3997 7.71603C19.3551 7.7213 19.3105 7.71603 19.2686 7.69762C19.2265 7.6792 19.1873 7.65288 19.1533 7.61603C19.1192 7.57919 19.0877 7.53446 19.064 7.48446C19.0404 7.43445 19.0222 7.37656 19.0142 7.3134C19.0064 7.2634 19.009 7.2134 19.0196 7.16866C19.0299 7.12392 19.0482 7.08182 19.072 7.04498C19.0955 7.00813 19.1269 6.97919 19.1636 6.95814C19.2004 6.93708 19.2397 6.92392 19.2843 6.91866C19.3287 6.91604 19.3708 6.92392 19.41 6.93972C19.4494 6.9555 19.4887 6.98182 19.5202 7.01339C19.5542 7.04498 19.5831 7.08446 19.604 7.13182C19.6275 7.17655 19.6433 7.22656 19.6539 7.28182C19.6644 7.33708 19.6644 7.38972 19.6539 7.43971C19.6459 7.48972 19.6303 7.53446 19.6066 7.57392C19.5831 7.6134 19.5542 7.64762 19.5175 7.6713C19.4809 7.69498 19.4415 7.71077 19.3969 7.71603H19.3997ZM20.663 7.58971C20.621 7.58971 20.5817 7.58445 20.5451 7.56603C20.5057 7.54762 20.4716 7.5213 20.4401 7.48708C20.4087 7.45287 20.3799 7.4134 20.3588 7.36604C20.338 7.31866 20.3222 7.26866 20.317 7.21604C20.3118 7.16339 20.3118 7.1134 20.3196 7.06866C20.3275 7.02392 20.3431 6.98182 20.3642 6.94762C20.3851 6.9134 20.4115 6.88446 20.4428 6.86339C20.4742 6.84235 20.5083 6.83182 20.5477 6.82919C20.5477 6.82919 20.5477 6.82919 20.5529 6.82919C20.5529 6.82919 20.5529 6.82919 20.5555 6.82919C20.5555 6.82919 20.5581 6.82919 20.5609 6.82919H20.5634C20.6027 6.82919 20.6447 6.83971 20.6814 6.85813C20.7181 6.87655 20.7521 6.90549 20.7836 6.93972C20.8151 6.97392 20.8411 7.01339 20.8597 7.05814C20.8806 7.10288 20.8938 7.15287 20.8989 7.20551C20.9041 7.2555 20.9016 7.30287 20.8938 7.34498C20.8857 7.38972 20.87 7.42919 20.8491 7.46339C20.8282 7.49762 20.8019 7.5292 20.773 7.55024C20.7416 7.5713 20.7075 7.58445 20.6708 7.58971H20.663ZM19.9212 6.85287C19.8793 6.8555 19.8373 6.84761 19.798 6.82919C19.7587 6.81077 19.7194 6.78446 19.6879 6.75024C19.6539 6.71603 19.625 6.67656 19.6015 6.6292C19.5777 6.58446 19.562 6.53182 19.5516 6.4792C19.5437 6.42655 19.5437 6.37656 19.5516 6.3292C19.5594 6.28181 19.5751 6.23971 19.5961 6.20288C19.6172 6.16604 19.6459 6.13707 19.6774 6.11339C19.7088 6.09234 19.7482 6.07919 19.7875 6.07392C19.7875 6.07392 19.7875 6.07392 19.7901 6.07392H19.7927C19.8347 6.07392 19.8766 6.08182 19.916 6.09761C19.9552 6.11603 19.9919 6.13972 20.026 6.17392C20.0575 6.2055 20.0863 6.24498 20.1099 6.28972C20.1335 6.33446 20.1492 6.38182 20.1597 6.43446C20.1702 6.48708 20.1702 6.53708 20.1624 6.58446C20.1545 6.63182 20.1413 6.67392 20.1178 6.71339C20.0968 6.75024 20.068 6.78182 20.0365 6.8055C20.0025 6.82919 19.9658 6.84498 19.9212 6.84761V6.85287ZM13.321 8.33972C13.2109 8.35024 13.127 8.35813 13.0616 8.3555C12.996 8.35287 12.9514 8.33972 12.92 8.30814C12.8885 8.27656 12.8676 8.2292 12.8518 8.16077C12.8361 8.08972 12.8256 7.99762 12.8125 7.87392C12.7994 7.74761 12.7889 7.65549 12.7889 7.58445C12.7889 7.5134 12.7994 7.46603 12.8282 7.43182C12.857 7.39762 12.9042 7.3792 12.975 7.36604C13.0457 7.35288 13.1401 7.34498 13.266 7.33708C13.3944 7.32655 13.4913 7.32129 13.5622 7.30813C13.6329 7.29498 13.6775 7.27656 13.7063 7.24235C13.7351 7.20814 13.743 7.15813 13.743 7.08708C13.743 7.01603 13.7299 6.91866 13.7168 6.79234C13.7011 6.6713 13.6906 6.5792 13.6906 6.51077C13.6906 6.44236 13.6984 6.39498 13.7247 6.36603C13.7509 6.33446 13.7928 6.31866 13.8584 6.30814C13.9238 6.29762 14.0104 6.29498 14.1283 6.28972C14.2489 6.28446 14.3354 6.28181 14.4036 6.28972C14.4717 6.29498 14.5162 6.30814 14.5504 6.33708C14.5845 6.36603 14.6028 6.41077 14.6186 6.47656C14.6343 6.54498 14.6446 6.63446 14.6605 6.75288C14.6762 6.87392 14.6867 6.96603 14.7024 7.03446C14.7181 7.10288 14.7391 7.14761 14.7732 7.17655C14.8072 7.20551 14.8545 7.21604 14.9226 7.21866C14.9907 7.2213 15.0798 7.21604 15.1979 7.20814C15.3079 7.20024 15.3865 7.19498 15.4495 7.19762C15.5097 7.20023 15.5516 7.21078 15.5832 7.23972C15.6146 7.26603 15.6329 7.30813 15.6486 7.3713C15.6645 7.43445 15.6748 7.5213 15.6905 7.63708C15.7063 7.75024 15.7169 7.83708 15.7194 7.90287C15.7194 7.96866 15.7142 8.0134 15.6905 8.04234C15.667 8.07392 15.6277 8.09234 15.5674 8.10551C15.507 8.11866 15.4232 8.1292 15.313 8.13972C15.1979 8.15288 15.1087 8.16077 15.0431 8.17656C14.9776 8.19234 14.9358 8.21077 14.9094 8.24498C14.8834 8.2792 14.8753 8.32919 14.8753 8.40024C14.8753 8.4713 14.8885 8.56604 14.9042 8.69234C14.9199 8.8134 14.9304 8.90288 14.9331 8.97129C14.9331 9.03972 14.9252 9.08708 14.9016 9.12129C14.8753 9.15549 14.8335 9.17656 14.7705 9.19235C14.7051 9.20814 14.6158 9.2213 14.4979 9.23708C14.38 9.25287 14.2935 9.26603 14.2253 9.26603C14.1572 9.26603 14.1099 9.25813 14.0759 9.22919C14.0418 9.20288 14.0209 9.15549 14.0051 9.08708C13.9894 9.01866 13.9789 8.92392 13.9632 8.79761C13.9475 8.66866 13.937 8.5713 13.9187 8.50024C13.9029 8.4292 13.8794 8.38181 13.8453 8.35287C13.8085 8.32392 13.7587 8.3134 13.6853 8.3134C13.612 8.3134 13.5123 8.32392 13.3813 8.33708C13.3761 8.33708 13.3735 8.33708 13.3682 8.33708C13.3629 8.33708 13.3604 8.33708 13.3551 8.33708C13.3498 8.33708 13.3472 8.33708 13.3419 8.33708C13.3368 8.33708 13.3341 8.33708 13.3288 8.33708L13.321 8.33972ZM10.1179 0.952873C10.0314 1.2213 9.99994 1.53972 10.0812 1.91077C9.83219 1.80288 10.0812 1.91077 9.882 1.78708C9.69588 1.6713 9.35513 1.4555 9.10349 1.34761C9.43377 1.20287 9.77191 1.07129 10.1153 0.952873H10.1179ZM8.64742 1.5555C8.47967 1.93972 8.39578 2.7134 9.14806 3.75288C9.14806 3.75288 7.84794 4.43971 8.25948 5.08181C9.14806 6.4713 9.14806 9.0213 8.06551 10.1266C8.06551 10.1266 8.49275 13.9002 11.2687 14.995C11.6723 15.1555 12.0865 15.2713 12.5006 15.3503C12.6841 16.1345 13.2188 19.2766 13.2607 19.3318C12.3486 20.1344 10.0393 21.4976 8.82828 20.7634C8.82828 20.7634 9.51241 19.9213 9.62774 19.3897C9.72997 18.924 9.78239 18.4608 9.81908 17.9977C9.85053 17.6266 9.85053 17.2608 9.86104 16.8924C9.87412 16.4766 9.45474 15.7344 8.82566 15.2054C8.37219 14.8239 6.20182 13.7555 5.71167 14.395C5.5911 14.5528 5.50458 14.724 5.4443 14.9003C5.41547 14.9818 4.32506 13.7924 2.34604 14.3081C2.07082 14.3792 2.09704 14.724 2.28314 14.8686C3.44433 15.7765 2.17305 19.9213 2.14159 20.1108C1.97384 21.1266 4.06556 24.6687 4.06556 24.6687C4.00265 24.6792 3.90304 24.716 3.80343 24.7582C1.53086 22.1424 0.1521 18.7266 0.1521 14.9924C0.1521 9.0634 3.63043 3.93446 8.64742 1.5555ZM23.9709 25.3318C23.5567 25.8845 22.6735 26.7213 21.7063 26.5266C22.089 25.5318 22.4113 25.0713 22.2828 23.9898C22.241 23.645 21.8162 21.1555 20.3118 19.2503C20.3405 19.2503 25.6459 19.9818 25.2973 21.0161C25.0246 21.474 22.2698 24.3687 23.604 24.7713C23.4651 24.4555 23.8714 24.1477 23.8714 24.1477C24.4349 24.3582 24.2122 25.0054 23.9709 25.3292V25.3318Z" fill="white"/>
<path fill-rule="evenodd" clip-rule="evenodd" d="M25.0324 11.0182C24.2042 10.1498 21.9762 10.9761 20.9303 10.7524C19.2789 10.3971 18.9408 7.55239 17.2318 8.11553C16.6341 8.31291 16.6814 10.6103 15.5857 11.0892C15.1349 11.2866 12.8596 11.1839 12.7574 11.5813C12.6447 12.0287 13.1558 13.934 13.701 13.8524C16.1441 13.484 17.3523 14.3708 18.5633 14.5286C19.5908 14.6602 20.5842 13.7497 20.0024 13.826C18.9906 13.9603 14.0104 12.9024 13.6513 12.5603C13.5096 12.4261 14.1414 11.6182 14.6343 11.5576C14.3223 11.9208 14.6132 12.2129 14.9305 12.3708C15.5253 12.6629 18.566 13.2287 19.2501 13.334C20.6891 13.5524 21.4939 13.1182 22.5189 12.4365C24.2067 11.234 24.6576 11.6945 24.6576 11.6945C24.3458 11.6366 23.8635 11.9629 23.5018 12.255C23.7324 12.3524 23.9552 12.4893 24.406 12.3366C25.2134 12.0629 25.5542 11.5734 25.0273 11.0208L25.0324 11.0182ZM19.1663 11.1971C19.0247 11.2024 18.8726 11.1839 18.8151 11.0655C18.7573 10.9497 18.8621 10.8813 18.9958 10.8734C19.1426 10.8629 19.2554 10.9261 19.3287 11.0077C19.3287 11.1208 19.2816 11.1919 19.1637 11.1971H19.1663Z" fill="#ED6F00"/>
<path fill-rule="evenodd" clip-rule="evenodd" d="M1.82694 19.1999C1.40493 17.8736 1.17688 16.4605 1.17688 14.9921C1.17688 9.83944 3.98418 5.34734 8.14403 2.96838C8.20694 3.16312 8.29606 3.37101 8.41926 3.59206C8.12307 3.81838 7.79017 4.14996 7.68532 4.54996C7.60931 4.8368 7.65648 5.11838 7.81376 5.36838C8.61584 6.61838 8.55032 8.87102 7.68794 9.74996L7.5097 9.93154L7.53853 10.1842C7.55687 10.35 8.03655 14.2894 11.0745 15.4895C11.3891 15.6132 11.7193 15.7184 12.0627 15.7999C12.1282 16.0553 12.2802 17.0737 12.705 19.2053C12.0915 19.7525 10.5083 20.5421 9.68004 20.4895C9.87665 20.1841 10.0759 19.8183 10.144 19.5026C10.566 17.5553 11.2056 16.5105 9.1663 14.7973C8.77575 14.4684 7.26855 13.6632 6.24891 13.6632C5.7168 13.6632 5.43371 13.8842 5.29216 14.071C5.2712 14.0974 5.25285 14.1236 5.23451 14.15C4.82559 13.9184 4.18078 13.6474 3.32364 13.6474C2.96193 13.6474 2.58709 13.6973 2.21226 13.7947C1.9082 13.8736 1.69064 14.1026 1.62773 14.4052C1.55957 14.7289 1.69325 15.0868 1.95537 15.2921C2.07596 15.3868 2.60281 16.0025 1.82431 19.2079L1.82694 19.1999Z" fill="#E6234A"/>
<path fill-rule="evenodd" clip-rule="evenodd" d="M28.7231 14.9923C28.7231 18.4633 27.4491 21.6369 25.3444 24.0659C25.2133 23.7659 25.0403 23.5132 24.8778 23.3185C25.1976 22.9423 25.811 22.3001 26.1465 21.95C26.862 21.2027 26.8752 21.1897 26.9119 21.0055C26.9119 20.9949 26.9249 20.9632 26.9327 20.9396C27.2893 19.8449 26.6339 19.0607 24.7415 18.3133C23.6379 17.8764 21.2081 17.5949 19.8424 17.4001C19.8713 16.9423 18.2435 15.4449 18.3615 15.458C20.2251 15.6449 21.0771 14.4054 21.1137 14.3264C21.6275 14.1396 22.4033 13.737 22.482 13.6791C22.579 13.6081 22.668 13.5264 22.7547 13.4475C22.862 13.3501 23.043 13.1843 23.1242 13.179C23.132 13.179 23.1373 13.179 23.1451 13.179C23.2238 13.179 23.3391 13.2133 23.4596 13.2527C23.6406 13.3081 23.866 13.3791 24.1255 13.3791C24.1885 13.3791 24.2488 13.3738 24.309 13.3659H24.3352C25.0954 13.2633 26.2408 13.1133 26.7258 11.6606C26.8279 11.3554 26.7598 11.0185 26.5397 10.708C26.0835 10.0738 25.022 9.57644 24.1202 9.57644C24.0312 9.57644 23.9446 9.58171 23.8607 9.58961C23.6615 9.61329 21.8686 9.96591 21.1845 9.5396C22.0049 9.32381 22.4899 8.43433 22.5291 7.67117C22.6707 4.90538 20.4034 4.61064 20.191 4.61591C20.1675 4.61591 20.1412 4.61591 20.1177 4.61591C19.271 2.95275 16.7389 2.20275 14.6918 1.86328L14.6551 1.85802H14.6185C13.9054 1.83959 13.3 1.66591 12.8019 1.32907C13.5044 1.21855 14.2252 1.16064 14.9592 1.16064C22.5658 1.16064 28.7335 7.35274 28.7335 14.9896L28.7231 14.9923Z" fill="#E6234A"/>
<path fill-rule="evenodd" clip-rule="evenodd" d="M9.13487 18.6944C9.14011 18.6786 9.14535 18.6602 9.14798 18.6444C9.0772 18.8392 9.0405 18.9444 9.13487 18.6944Z" fill="#003364"/>
<path fill-rule="evenodd" clip-rule="evenodd" d="M24.0705 11.6368C24.5134 11.5395 24.6628 11.6895 24.6628 11.6895C24.351 11.6316 23.8687 11.9579 23.507 12.2501C23.7376 12.3475 23.9603 12.4842 24.4112 12.3316C25.9315 11.8158 24.6628 11.1264 24.0705 11.6343V11.6368Z" fill="#E6234A"/>
<path fill-rule="evenodd" clip-rule="evenodd" d="M12.0314 28.6475C10.996 28.5553 9.49933 27.9001 8.52686 27.3133C9.44165 27.2791 10.6107 27.2369 11.1664 27.0975C11.2188 27.4158 11.3132 27.6843 11.3368 27.7448C11.46 28.0763 11.8794 28.5001 12.0314 28.6475Z" fill="#E6234A"/>
<path fill-rule="evenodd" clip-rule="evenodd" d="M20.4977 21.9001C20.3902 21.8922 20.3012 21.8791 20.3824 21.8975C20.4217 21.9054 20.4584 21.9054 20.4977 21.9001Z" fill="#003364"/>
<path fill-rule="evenodd" clip-rule="evenodd" d="M12.2856 24.8894C12.0419 25.0316 11.7903 25.1552 11.5255 25.2658C10.7915 25.5738 10.034 25.7684 9.27911 25.9632C7.81386 26.3422 6.47443 26.2579 5.25033 25.7263C4.97248 25.6052 4.41678 25.2605 4.43513 25.2238C4.45086 25.1921 5.69856 24.821 5.67495 24.8184C5.24771 24.7289 3.94759 21.4526 3.87157 21.2764C3.30016 19.9736 3.44957 15.3184 2.86765 14.7474C2.81523 14.6948 3.16386 14.6552 3.60946 14.7184C4.15204 15.4052 4.02098 19.7394 4.57929 20.971C4.65532 21.1421 5.95805 24.2973 6.38269 24.3841C8.24112 24.7606 10.2804 25.6684 12.283 24.8867L12.2856 24.8894Z" fill="#C5C6C6"/>
<path fill-rule="evenodd" clip-rule="evenodd" d="M23.9708 25.3315C24.2119 25.0077 24.4322 24.3604 23.8712 24.15C23.8712 24.15 23.4649 24.4578 23.6038 24.7736C22.2696 24.371 25.0244 21.4762 25.2972 21.0184C25.4334 20.613 24.7074 20.2552 23.7664 19.9709C26.094 21.4972 20.9931 24.4156 23.3128 25.113C23.3077 25.1026 22.8332 26.1814 22.0494 26.5552C22.8778 26.5262 23.6065 25.8209 23.9708 25.3315Z" fill="#B1B2B3"/>
<path fill-rule="evenodd" clip-rule="evenodd" d="M16.2488 15.8103L15.8189 16.0551C15.7717 16.0813 15.735 16.1288 15.7508 16.1945L15.8556 16.6551C15.8713 16.7209 15.9262 16.7525 15.9813 16.7578L16.5344 16.8157C16.8934 16.8525 17.0717 16.9393 16.9721 16.4999L16.8307 15.8841C16.7389 15.4813 16.5214 15.6551 16.2488 15.8103Z" fill="#1A1A18"/>
<path fill-rule="evenodd" clip-rule="evenodd" d="M15.0221 16.1788L15.4678 16.0868C15.5437 16.0709 15.6224 16.1235 15.6407 16.2025L15.7666 16.742C15.7849 16.8209 15.7351 16.8946 15.6591 16.9104L15.2134 17.0026C15.1375 17.0184 15.0588 16.9657 15.0405 16.8868L14.9146 16.3472C14.8962 16.2684 14.9461 16.1946 15.0221 16.1788Z" fill="#E6234A"/>
<path fill-rule="evenodd" clip-rule="evenodd" d="M16.9329 21.229C17.0955 21.229 17.2292 21.3605 17.2292 21.5264C17.2292 21.6922 17.0982 21.8238 16.9329 21.8238C16.7678 21.8238 16.6368 21.6922 16.6368 21.5264C16.6368 21.3605 16.7678 21.229 16.9329 21.229ZM16.1834 18.479C16.3459 18.479 16.4796 18.6106 16.4796 18.7764C16.4796 18.9422 16.3485 19.0738 16.1834 19.0738C16.0181 19.0738 15.8871 18.9422 15.8871 18.7764C15.8871 18.6106 16.0181 18.479 16.1834 18.479ZM16.6158 19.8448C16.7784 19.8448 16.9121 19.9764 16.9121 20.1422C16.9121 20.308 16.781 20.4396 16.6158 20.4396C16.4507 20.4396 16.3196 20.308 16.3196 20.1422C16.3196 19.9764 16.4507 19.8448 16.6158 19.8448Z" fill="#060D1F"/>
<path fill-rule="evenodd" clip-rule="evenodd" d="M14.1728 16.2686L14.726 16.3001C14.7809 16.3028 14.836 16.337 14.8517 16.4027L14.9565 16.8606C14.9724 16.9264 14.9357 16.9737 14.8884 17.0002L14.3564 17.2921C14.047 17.4606 13.9186 17.6002 13.8163 17.1632L13.6748 16.5474C13.5804 16.1447 13.8531 16.2502 14.1754 16.2686H14.1728Z" fill="#1A1A18"/>
<path fill-rule="evenodd" clip-rule="evenodd" d="M15.2291 23.6764C15.1268 23.7212 15.0324 23.7765 14.946 23.8422C14.8595 23.9081 14.7834 23.9816 14.7232 24.0632C14.6629 24.1449 14.621 24.2212 14.6053 24.2974L14.0444 26.5449C14.0234 26.6186 14.0234 26.6974 14.0469 26.779C14.0705 26.8606 14.1072 26.9344 14.1596 27C14.2121 27.0659 14.2776 27.1213 14.3589 27.1658C14.4402 27.2106 14.5266 27.2317 14.6237 27.2317H18.3562C18.4559 27.2317 18.5555 27.2106 18.655 27.1658C18.7547 27.1213 18.8463 27.0659 18.9328 27C19.0167 26.9344 19.0902 26.8606 19.1504 26.779C19.2107 26.6974 19.2499 26.6186 19.271 26.5449L19.6328 25.1159H18.1387H17.5332L17.4125 25.8028H17.9656L17.7796 26.5449H15.541L16.102 24.2974H19.8346L20.0075 23.6106H15.5304C15.4362 23.6106 15.3366 23.6317 15.2344 23.6764H15.2291Z" fill="#E6234A"/>
<path fill-rule="evenodd" clip-rule="evenodd" d="M15.0615 23.4292C14.9592 23.474 14.8648 23.5292 14.7784 23.595C14.6919 23.6608 14.6158 23.7344 14.5556 23.8161C14.4952 23.8977 14.4534 23.974 14.4377 24.0502L13.8766 26.2977C13.8556 26.3713 13.8556 26.4502 13.8793 26.5318C13.9029 26.6134 13.9396 26.687 13.992 26.7529C14.0444 26.8186 14.11 26.874 14.1912 26.9186C14.2725 26.9634 14.3589 26.9845 14.456 26.9845H18.1886C18.2882 26.9845 18.3878 26.9634 18.4874 26.9186C18.5871 26.874 18.6787 26.8186 18.7651 26.7529C18.8491 26.687 18.9225 26.6134 18.9827 26.5318C19.0431 26.4502 19.0823 26.3713 19.1034 26.2977L19.4649 24.8686H17.9709H17.3654L17.2449 25.5556H17.7979L17.6118 26.2977H15.3733L15.9343 24.0502H19.667L19.8399 23.3634H15.3628C15.2685 23.3634 15.1689 23.3845 15.0666 23.4292H15.0615Z" fill="#1A1A18"/>
</g>
</g>
<mask id="mask2_1365_133" style="mask-type:luminance" maskUnits="userSpaceOnUse" x="32" y="3" width="54" height="24">
<path d="M85.1264 3H32.738V27H85.1264V3Z" fill="white"/>
</mask>
<g mask="url(#mask2_1365_133)">
<path fill-rule="evenodd" clip-rule="evenodd" d="M44.65 13.6894H36.3837C35.414 13.6894 34.5898 13.3672 33.9124 12.7254C33.2337 12.0809 32.8943 11.2732 32.8943 10.3065V6.38293C32.8943 5.41618 33.2337 4.60854 33.9124 3.96405C34.5898 3.32225 35.414 3 36.3837 3H44.6513V5.49573H36.3837C35.7183 5.49573 35.3871 5.7937 35.3871 6.38696V10.3038C35.3871 10.897 35.7197 11.1951 36.3837 11.1951H42.1585V9.59326H38.7727V7.09753H44.6513V13.6894H44.65ZM58.8163 10.3834C58.8163 11.2841 58.5321 12.0606 57.9651 12.712C57.3969 13.3632 56.671 13.6894 55.7848 13.6894H48.7224C47.8228 13.6894 47.0915 13.3632 46.5313 12.712C45.9712 12.0606 45.6896 11.2841 45.6896 10.3834V3H48.1824V10.382C48.1824 10.9227 48.363 11.1923 48.7224 11.1923H55.805C56.1511 11.1923 56.3248 10.9227 56.3248 10.382V3H58.8177V10.382L58.8163 10.3834ZM72.6083 10.3942C72.6083 11.2921 72.339 12.058 71.7976 12.6957C71.2158 13.3578 70.4818 13.6909 69.5956 13.6909H60.3731V11.1951H69.5956C69.9417 11.1951 70.1156 10.928 70.1156 10.3942C70.1156 9.86022 69.9417 9.59326 69.5956 9.59326H62.8862C62.0001 9.59326 61.266 9.26022 60.6843 8.59551C60.1307 7.97124 59.8533 7.20943 59.8533 6.30742C59.8533 5.40539 60.1375 4.63011 60.7045 3.97888C61.2727 3.32764 61.9987 3.00135 62.8848 3.00135H72.1073V5.49709H62.8646C62.5185 5.49709 62.3448 5.76674 62.3448 6.30742C62.3448 6.84809 62.5185 7.09753 62.8646 7.09753H69.5876C70.4778 7.09753 71.2118 7.43057 71.7962 8.09258C72.3363 8.7263 72.6069 9.49617 72.6069 10.3942H72.6083ZM85.0509 5.49709H76.1394V5.50786H73.6467V3H85.0495V5.49573L85.0509 5.49709ZM84.4691 7.12854V9.59326H76.1394V11.1951H85.0293V13.6909H73.6467V7.1272H84.4691V7.12854Z" fill="#E6234A"/>
<path fill-rule="evenodd" clip-rule="evenodd" d="M44.4951 26.9405H36.2275C35.2578 26.9405 34.4335 26.6183 33.7562 25.9766C33.0774 25.332 32.738 24.5245 32.738 23.5577V19.6341C32.738 18.6673 33.0774 17.8597 33.7562 17.2152C34.4349 16.5734 35.2592 16.2512 36.2275 16.2512H44.4951V18.7468H36.2275C35.5622 18.7468 35.2308 19.0449 35.2308 19.6382V23.555C35.2308 24.1482 35.5634 24.4462 36.2275 24.4462H42.0023V22.8445H38.6166V20.3487H44.4951V26.9405ZM58.64 26.9405H56.1471V23.5509H49.583V21.0552H56.1471V19.5572C56.1471 19.0166 55.9667 18.7468 55.6071 18.7468H48.5448C48.1987 18.7468 48.0249 19.0166 48.0249 19.5545V26.9405H45.5321V19.5519C45.5321 18.6539 45.8122 17.8772 46.3738 17.226C46.934 16.5774 47.6587 16.2525 48.5448 16.2525H55.6071C56.5067 16.2525 57.238 16.5788 57.7982 17.226C58.3585 17.8772 58.64 18.6539 58.64 19.5519V26.9405ZM72.4535 26.9405H70.2623V20.4309L66.354 26.7734L62.4459 20.4309V26.9405H60.2547V16.2512H62.5549L66.3528 22.4278L70.1694 16.2512H72.4522V26.9405H72.4535ZM84.8745 18.7456H75.9793V18.7495H73.4918V16.2552H84.8745V18.7456ZM84.3332 20.3662V22.8431H75.9887V24.4476H84.8947V26.9473H73.4918V20.3662H84.3332Z" fill="#292A2C"/>
</g>
</svg>
