<svg width="25" height="20" viewBox="0 0 25 20" fill="none" xmlns="http://www.w3.org/2000/svg">
<mask id="mask0_1416_232" style="mask-type:alpha" maskUnits="userSpaceOnUse" x="0" y="0" width="25" height="20">
<path d="M15.8689 19.6756C15.2456 19.506 14.045 19.1118 13.201 18.7996C9.64342 17.4836 6.94074 17.4442 1.55645 18.6297C-0.139981 19.0033 0.00118929 19.7696 0.00389492 10.2022C0.00518002 5.57192 0.0485331 1.62658 0.100179 1.43477C0.176898 1.14985 0.53543 1.01096 2.05943 0.675757C6.21179 -0.237547 9.59439 -0.225137 12.2944 0.713303C12.9657 0.946631 14.1035 1.34649 14.8227 1.60187C16.7629 2.29073 18.6904 2.4955 20.6396 2.21981C22.8637 1.90524 23.3687 1.92211 23.6604 2.32071C24.0105 2.79896 23.8726 3.15722 22.3787 5.65095C21.645 6.87581 20.853 8.29642 20.6189 8.80786C19.9426 10.285 20.0604 10.6304 22.7761 15.1351C23.7122 16.688 24.413 18.042 24.413 18.298C24.413 19.0385 23.9061 19.4439 22.6149 19.7361C20.9502 20.1128 17.3575 20.0806 15.8689 19.6756Z" fill="black"/>
</mask>
<g mask="url(#mask0_1416_232)">
<path d="M2 -1.5C2 -2.60457 2.89543 -3.5 4 -3.5H25C26.1046 -3.5 27 -2.60457 27 -1.5V19.5C27 20.6046 26.1046 21.5 25 21.5H4C2.89543 21.5 2 20.6046 2 19.5V-1.5Z" fill="#D9D9D9"/>
<path d="M25 -3.5H9.53674e-06V9H25L25 -3.5Z" fill="white"/>
<path d="M25 9H9.53674e-06V21.5H25L25 9Z" fill="#D52B1E"/>
<path d="M25 6.75H0L9.53674e-06 13.1667H25V6.75Z" fill="#0039A6"/>
</g>
</svg>
