<svg width="147" height="50" viewBox="0 0 147 50" fill="none" xmlns="http://www.w3.org/2000/svg">
<mask id="mask0_1330_102" style="mask-type:luminance" maskUnits="userSpaceOnUse" x="0" y="0" width="50" height="50">
<path d="M49.8028 0H0V50H49.8028V0Z" fill="white"/>
</mask>
<g mask="url(#mask0_1330_102)">
<mask id="mask1_1330_102" style="mask-type:luminance" maskUnits="userSpaceOnUse" x="0" y="0" width="50" height="50">
<path d="M49.8028 0H0V50H49.8028V0Z" fill="white"/>
</mask>
<g mask="url(#mask1_1330_102)">
<path d="M24.9014 50C38.6539 50 49.8028 38.807 49.8028 25C49.8028 11.1929 38.6539 0 24.9014 0C11.1487 0 0 11.1929 0 25C0 38.807 11.1487 50 24.9014 50Z" fill="#060D1F"/>
<path fill-rule="evenodd" clip-rule="evenodd" d="M33.4509 12.7897C33.4509 12.7897 33.4553 12.7897 33.4595 12.7897H33.4685C33.4685 12.7897 33.4729 12.7897 33.4771 12.7897H33.4859C33.5472 12.7854 33.6126 12.8029 33.6737 12.8336C33.7349 12.8687 33.7872 12.9169 33.8398 12.9783C33.8878 13.0397 33.9313 13.1055 33.9665 13.1757C34.0015 13.2459 34.0232 13.3161 34.0318 13.3818C34.0452 13.4695 34.0452 13.5573 34.0318 13.6362C34.019 13.7152 33.9927 13.7897 33.9575 13.8511C33.9227 13.9169 33.8746 13.9695 33.8178 14.009C33.761 14.0485 33.6957 14.0748 33.6256 14.088C33.5558 14.0968 33.4859 14.088 33.4203 14.0617C33.3549 14.0354 33.2936 13.9959 33.2368 13.9476C33.1801 13.895 33.1321 13.8292 33.0969 13.759C33.0578 13.6845 33.0316 13.6011 33.0184 13.5134C33.0054 13.4169 33.0054 13.3292 33.0184 13.2459C33.0316 13.1625 33.0578 13.088 33.0969 13.0222C33.1365 12.9564 33.1843 12.9038 33.2456 12.8643C33.3024 12.8248 33.3721 12.7985 33.4467 12.7941L33.4509 12.7897ZM24.9146 0.228333C22.87 0.228333 20.8779 0.482717 18.9775 0.956402C19.9735 2.62306 21.6119 3.92569 24.3291 3.9915C26.2165 4.30289 31.4893 5.32482 32.8088 8.27219C32.8741 8.27659 32.9353 8.28536 33.001 8.29412C33.1189 8.31166 33.2324 8.33799 33.3504 8.37306C33.4641 8.40815 33.5778 8.44762 33.6957 8.49589C33.8092 8.54413 33.9227 8.60115 34.0406 8.66254C34.3378 8.82482 34.6 9.01343 34.8314 9.22832C35.0585 9.43885 35.2595 9.68008 35.43 9.94324C35.6005 10.2064 35.7446 10.4915 35.8623 10.8029C35.9802 11.1143 36.0765 11.452 36.1463 11.8117C36.225 12.202 36.2468 12.588 36.2292 12.9608C36.2076 13.338 36.1377 13.6976 36.0284 14.0354C35.9148 14.3775 35.7576 14.6932 35.5653 14.9695C35.3687 15.2502 35.1286 15.4915 34.8534 15.6801C34.7833 15.7283 34.7135 15.7722 34.6392 15.8073C34.5648 15.8468 34.4907 15.8818 34.4164 15.9125C34.342 15.9432 34.2635 15.9695 34.1893 15.9959C34.1106 16.0178 34.032 16.0397 33.9533 16.0529H33.9271C35.4822 16.895 38.4182 17.0397 39.8599 16.8775C41.616 16.6801 44.0364 18.145 43.6954 19.1625C43.0575 21.0792 41.6597 21.2415 40.3927 21.4081C39.6806 21.5002 39.0995 21.0353 38.4531 21.0923C37.8544 21.145 37.3827 21.7678 36.9415 22.0967C36.7272 22.2546 34.5648 23.2941 34.5605 23.1187C34.5605 23.9476 33.1059 24.7899 31.8041 24.9608C31.4546 25.0046 31.1048 25.009 30.7729 24.9652C30.301 24.9039 29.8468 24.8116 29.4013 24.6932C29.1695 24.7899 28.9119 24.8862 28.6367 24.9783C29.2308 25.9169 32.2016 29.4652 32.7868 30.0309C34.9581 30.3469 39.139 30.6625 40.9037 31.3599C45.0892 33.0136 44.0887 34.2853 43.9796 34.8469C43.9487 35.0046 40.0432 38.8379 40.3403 39.0136C40.6505 39.202 42.7779 41.3599 40.9605 43.5002C40.5807 43.952 38.1997 45.8555 35.2332 45.3029C35.2332 45.3029 33.9141 47.0136 32.7476 47.0136C32.7476 47.0136 34.827 43.9346 35.1502 41.8555C35.7226 40.0923 35.2903 36.6669 27.7018 25.3116C26.592 25.5969 23.7699 26.316 21.9439 25.7108C22.3284 28.0616 24.15 34.3818 24.1324 34.7108C23.9971 34.4783 22.5424 33.439 22.2978 33.3206C22.1491 33.2502 19.2221 36.2853 15.7141 36.1625C15.0151 36.1625 14.3293 36.1276 13.6521 36.0441C13.4555 36.0222 13.0973 38.009 13.176 38.8643C13.176 38.8818 13.1716 38.8994 13.1672 38.9169C13.0929 38.9345 13.0842 38.8776 13.058 38.8423C12.7478 38.3862 12.7041 37.8599 12.4901 37.3072C11.4153 34.5399 14.4603 34.0572 13.3507 30.7766C13.3507 30.7766 13.9405 31.1448 14.1327 31.4125C14.3729 31.7415 14.4996 32.1276 14.5564 32.5441C14.6132 32.952 15.3122 30.8862 15.238 31.0836C14.7006 29.2283 12.6517 28.259 12.6517 28.259C14.456 27.9255 15.2991 29.4345 15.5481 29.8292C15.5831 29.4783 15.002 25.6186 10.262 24.6976C9.08686 24.4695 9.21793 26.8993 8.9296 28.0616C8.9296 28.0792 8.91213 28.0923 8.89463 28.1276C8.76359 28.0529 8.71554 27.9301 8.67185 27.8072C8.50146 27.3469 8.54077 26.8469 8.65439 26.3379C8.6937 26.1583 8.58884 26.1362 8.50584 25.9695C7.68014 24.3206 4.58714 24.4213 4.78374 24.6099C5.75357 25.5616 5.50456 33.316 6.45691 35.4915C6.58799 35.7853 8.75485 41.2459 9.46258 41.3948C9.49752 41.4039 7.41805 42.0222 7.39619 42.0706C7.36561 42.1318 8.29178 42.7066 8.75485 42.9083C10.7907 43.7941 13.0274 43.9346 15.4695 43.3029C16.7277 42.9783 17.9858 42.6362 19.2091 42.1232C20.5853 41.5441 21.7954 40.7415 22.7565 39.6055C22.8 39.5572 22.8744 39.4959 22.9749 39.4608C22.6559 40.5441 20.7861 47.0136 20.6988 47.0178C19.659 47.066 19.0606 43.8906 19.6939 43.9213C19.6939 43.9213 14.1545 46.0706 8.86843 43.7941C13.1847 47.5136 18.7896 49.7636 24.9101 49.7636C38.5099 49.7636 49.5714 38.6583 49.5714 25.0046C49.5714 11.3511 38.5141 0.228333 24.9146 0.228333ZM30.3406 8.23712H30.2269C30.1178 8.23273 30.0084 8.22832 29.8949 8.22832C29.7858 8.22832 29.6719 8.22832 29.5584 8.22832C29.3923 8.22832 29.222 8.22832 29.0518 8.22832C28.8813 8.22832 28.7066 8.22832 28.5317 8.22832C28.3571 8.22832 28.1778 8.22832 27.9988 8.22832C27.8199 8.22832 27.6362 8.22832 27.4528 8.22832V8.23712C27.2957 8.23712 27.1382 8.23712 26.9765 8.23273C26.8148 8.23273 26.6532 8.23273 26.4871 8.23273C26.3212 8.23273 26.1551 8.23273 25.9891 8.23273C25.8232 8.23273 25.6527 8.23273 25.4824 8.22832C25.3121 8.22832 25.1375 8.22832 24.9626 8.22396C24.7879 8.22396 24.6087 8.22396 24.4296 8.21955C24.2505 8.21955 24.0671 8.21955 23.8878 8.21519C23.7044 8.21519 23.5209 8.21078 23.333 8.20639H23.32C23.2325 8.20639 23.1408 8.20639 23.0534 8.21078C22.9661 8.21078 22.8744 8.21955 22.787 8.23273C22.6997 8.2415 22.608 8.25466 22.5204 8.26782C22.4331 8.28096 22.3458 8.29852 22.2584 8.31606C21.5681 8.46078 20.9434 8.76343 20.4192 9.18447C19.8818 9.61429 19.4493 10.1713 19.1479 10.8029C18.8422 11.4476 18.6761 12.1625 18.6761 12.8994C18.6761 13.645 18.8464 14.4038 19.2047 15.1187C19.4625 15.6318 19.7989 16.088 20.192 16.474C20.5503 16.8292 20.9566 17.1275 21.3891 17.3555C20.7643 17.3117 20.2138 17.3643 19.9256 17.6582C17.7412 19.8774 19.9997 23.0616 21.2318 23.645C24.1152 25.009 26.0854 23.5178 26.7013 23.7634L27.0115 23.8862C26.4217 24.2985 25.4343 25.009 23.5864 25.009C18.8508 25.009 15.452 20.9652 16.1597 17.6582C16.4961 16.0748 18.6805 11.0792 15.9194 7.38185C15.9806 7.33359 18.0383 6.25025 18.0383 6.25025C16.3126 6.19762 14.1501 2.25464 16.1466 3.49589C16.9636 4.00466 18.0863 4.43447 19.1653 4.77219C17.8854 2.95201 18.4095 1.98271 18.4095 1.98271C19.5367 5.11868 23.5908 5.42569 23.5908 5.42569C28.9424 5.87745 29.8556 7.30289 30.3448 8.26343L30.3406 8.23712ZM32.3327 12.8599C32.2584 12.8687 32.184 12.8599 32.1143 12.8292C32.0441 12.7985 31.9788 12.7547 31.922 12.6932C31.8652 12.6318 31.8127 12.5573 31.7733 12.474C31.734 12.3906 31.7036 12.2941 31.6902 12.1889C31.6772 12.1055 31.6816 12.0222 31.6992 11.9476C31.7164 11.8731 31.747 11.8029 31.7865 11.7415C31.8257 11.6801 31.8781 11.6318 31.9392 11.5968C32.0006 11.5617 32.0661 11.5397 32.1404 11.531C32.2144 11.5266 32.2845 11.5397 32.3499 11.5661C32.4156 11.5924 32.481 11.6362 32.5336 11.6888C32.5903 11.7415 32.6385 11.8073 32.6733 11.8862C32.7124 11.9608 32.7388 12.0441 32.7564 12.1362C32.774 12.2283 32.774 12.3161 32.7564 12.3994C32.743 12.4827 32.717 12.5573 32.6777 12.6231C32.6385 12.6889 32.5903 12.7459 32.5292 12.7854C32.468 12.8248 32.4025 12.8511 32.3281 12.8599H32.3327ZM34.4383 12.6494C34.3682 12.6494 34.3028 12.6406 34.2417 12.6099C34.1761 12.5792 34.1192 12.5354 34.0668 12.4783C34.0145 12.4213 33.9665 12.3555 33.9313 12.2766C33.8965 12.1976 33.8702 12.1143 33.8616 12.0266C33.853 11.9388 33.853 11.8555 33.866 11.781C33.8791 11.7064 33.9051 11.6362 33.9403 11.5792C33.9751 11.5222 34.019 11.474 34.0712 11.4388C34.1236 11.4038 34.1803 11.3862 34.2461 11.3818C34.2461 11.3818 34.2461 11.3818 34.2547 11.3818C34.2547 11.3818 34.2547 11.3818 34.2591 11.3818C34.2591 11.3818 34.2635 11.3818 34.268 11.3818H34.2723C34.3378 11.3818 34.4078 11.3994 34.4689 11.4301C34.5301 11.4608 34.5868 11.509 34.6392 11.5661C34.6917 11.6231 34.7351 11.6888 34.7661 11.7634C34.8009 11.838 34.8228 11.9213 34.8314 12.009C34.84 12.0924 34.8358 12.1713 34.8228 12.2415C34.8095 12.3161 34.7833 12.3818 34.7485 12.4388C34.7135 12.4959 34.6698 12.5485 34.6216 12.5836C34.5692 12.6187 34.5125 12.6406 34.4513 12.6494H34.4383ZM33.2019 11.4213C33.1321 11.4257 33.0622 11.4125 32.9966 11.3818C32.9311 11.3511 32.8655 11.3073 32.8131 11.2503C32.7564 11.1932 32.7082 11.1275 32.669 11.0485C32.6295 10.974 32.6033 10.8862 32.5859 10.7985C32.5727 10.7108 32.5727 10.6275 32.5859 10.5485C32.5989 10.4695 32.6251 10.3994 32.6601 10.338C32.6952 10.2766 32.743 10.2283 32.7956 10.1888C32.8479 10.1538 32.9137 10.1318 32.979 10.1231C32.979 10.1231 32.979 10.1231 32.9834 10.1231H32.9878C33.0578 10.1231 33.1275 10.1362 33.1933 10.1625C33.2586 10.1932 33.3198 10.2327 33.3765 10.2897C33.4291 10.3424 33.4771 10.4082 33.5164 10.4827C33.5558 10.5573 33.582 10.6362 33.5994 10.724C33.6169 10.8117 33.617 10.895 33.604 10.974C33.5908 11.0529 33.5688 11.1231 33.5296 11.1888C33.4946 11.2503 33.4467 11.3029 33.3941 11.3424C33.3374 11.3818 33.2762 11.4082 33.2019 11.4125V11.4213ZM22.2017 13.8994C22.018 13.9169 21.8783 13.9301 21.7692 13.9257C21.6599 13.9213 21.5855 13.8994 21.5332 13.8468C21.4808 13.7941 21.4458 13.7152 21.4197 13.6011C21.3935 13.4827 21.3759 13.3292 21.3541 13.1231C21.3323 12.9125 21.3147 12.759 21.3147 12.6406C21.3147 12.5222 21.3323 12.4432 21.3803 12.3862C21.4283 12.3292 21.507 12.2985 21.6249 12.2766C21.7428 12.2547 21.9001 12.2415 22.1099 12.2283C22.324 12.2108 22.4855 12.202 22.6036 12.1801C22.7215 12.1582 22.7958 12.1275 22.8438 12.0704C22.8918 12.0134 22.9049 11.9301 22.9049 11.8117C22.9049 11.6932 22.8832 11.531 22.8612 11.3204C22.835 11.1187 22.8176 10.9652 22.8176 10.8511C22.8176 10.7371 22.8306 10.6582 22.8744 10.6099C22.9181 10.5573 22.9879 10.531 23.0972 10.5134C23.2063 10.4959 23.3506 10.4915 23.5471 10.4827C23.7481 10.474 23.8922 10.4695 24.0059 10.4827C24.1194 10.4915 24.1936 10.5134 24.2505 10.5617C24.3075 10.6099 24.3379 10.6845 24.3642 10.7941C24.3904 10.9082 24.4076 11.0573 24.434 11.2547C24.4602 11.4564 24.4778 11.6099 24.5039 11.724C24.5301 11.838 24.5651 11.9125 24.6219 11.9608C24.6786 12.009 24.7574 12.0266 24.8709 12.031C24.9844 12.0354 25.1329 12.0266 25.3297 12.0134C25.513 12.0003 25.6441 11.9915 25.749 11.9959C25.8494 12.0002 25.9193 12.0178 25.9718 12.0661C26.0242 12.1099 26.0548 12.1801 26.081 12.2854C26.1073 12.3906 26.1246 12.5354 26.1507 12.7283C26.1771 12.9169 26.1947 13.0617 26.1989 13.1713C26.1989 13.281 26.1903 13.3555 26.1507 13.4038C26.1116 13.4564 26.046 13.4871 25.9457 13.509C25.845 13.531 25.7053 13.5485 25.5216 13.5661C25.3297 13.588 25.181 13.6011 25.0717 13.6275C24.9626 13.6538 24.8928 13.6845 24.8489 13.7415C24.8055 13.7985 24.7921 13.8818 24.7921 14.0003C24.7921 14.1187 24.8141 14.2766 24.8403 14.4871C24.8665 14.6889 24.8839 14.838 24.8885 14.952C24.8885 15.0661 24.8753 15.145 24.8359 15.202C24.7921 15.259 24.7224 15.2941 24.6175 15.3204C24.5083 15.3468 24.3597 15.3687 24.163 15.395C23.9666 15.4213 23.8225 15.4432 23.7087 15.4432C23.5952 15.4432 23.5165 15.4301 23.4597 15.3818C23.403 15.338 23.368 15.259 23.3418 15.145C23.3156 15.031 23.2981 14.8731 23.2719 14.6625C23.2457 14.4476 23.2283 14.2854 23.1977 14.1669C23.1714 14.0485 23.1322 13.9695 23.0754 13.9213C23.0141 13.8731 22.9311 13.8555 22.8088 13.8555C22.6865 13.8555 22.5204 13.8731 22.302 13.895C22.2934 13.895 22.289 13.895 22.2802 13.895C22.2714 13.895 22.2672 13.895 22.2584 13.895C22.2496 13.895 22.2452 13.895 22.2365 13.895C22.2278 13.895 22.2235 13.895 22.2147 13.895L22.2017 13.8994ZM16.8631 1.58798C16.7189 2.03536 16.6665 2.56606 16.8019 3.18447C16.3869 3.00466 16.8019 3.18447 16.4699 2.97832C16.1597 2.78536 15.5918 2.42569 15.1724 2.24587C15.7229 2.00464 16.2864 1.78535 16.8587 1.58798H16.8631ZM14.4123 2.59236C14.1327 3.23273 13.9929 4.52219 15.2467 6.25466C15.2467 6.25466 13.0798 7.39938 13.7657 8.46955C15.2467 10.7854 15.2467 15.0354 13.4424 16.8775C13.4424 16.8775 14.1545 23.1669 18.781 24.9915C19.4537 25.259 20.144 25.452 20.8343 25.5836C21.1401 26.8906 22.0312 32.1276 22.1011 32.2195C20.5809 33.5572 16.732 35.8292 14.7137 34.6055C14.7137 34.6055 15.8539 33.202 16.0461 32.316C16.2165 31.5399 16.3039 30.7678 16.3651 29.9959C16.4175 29.3776 16.4175 28.7678 16.435 28.1539C16.4568 27.4608 15.7578 26.2239 14.7093 25.3423C13.9536 24.7064 10.3363 22.9257 9.51936 23.9915C9.31841 24.2546 9.17422 24.5399 9.07376 24.8336C9.02571 24.9695 7.20835 22.9871 3.90999 23.8467C3.45129 23.9652 3.49498 24.5399 3.80515 24.7809C5.74046 26.2941 3.62166 33.202 3.56924 33.5178C3.28965 35.2108 6.77585 41.1143 6.77585 41.1143C6.67101 41.1318 6.50499 41.1932 6.33898 41.2636C2.55134 36.9039 0.253418 31.2108 0.253418 24.9871C0.253418 15.1055 6.05063 6.55729 14.4123 2.59236ZM39.9514 42.2195C39.2611 43.1406 37.789 44.5353 36.177 44.2108C36.8149 42.5529 37.3522 41.7853 37.1379 39.9829C37.0682 39.4083 36.3603 35.259 33.853 32.0836C33.9008 32.0836 42.7431 33.3029 42.1622 35.0266C41.7075 35.7899 37.1163 40.6143 39.3399 41.2853C39.1084 40.759 39.7855 40.2459 39.7855 40.2459C40.7248 40.5969 40.3535 41.6755 39.9514 42.2152V42.2195Z" fill="white"/>
<path fill-rule="evenodd" clip-rule="evenodd" d="M41.7209 18.3636C40.3405 16.9163 36.6271 18.2934 34.884 17.9206C32.1317 17.3285 31.5681 12.5873 28.7198 13.5259C27.7237 13.8549 27.8025 17.6838 25.9763 18.482C25.225 18.811 21.4328 18.6399 21.2626 19.3022C21.0747 20.0478 21.9265 23.2233 22.8352 23.0873C26.9069 22.4733 28.9207 23.9513 30.939 24.2143C32.6515 24.4336 34.3072 22.9162 33.3375 23.0434C31.6512 23.2671 23.3508 21.504 22.7523 20.9338C22.5162 20.7101 23.5692 19.3636 24.3906 19.2627C23.8706 19.868 24.3555 20.3548 24.8843 20.618C25.8757 21.1048 30.9435 22.0478 32.0837 22.2233C34.4819 22.5873 35.8233 21.8636 37.5316 20.7276C40.3447 18.7233 41.0962 19.4908 41.0962 19.4908C40.5765 19.3943 39.7727 19.9382 39.1698 20.425C39.5541 20.5873 39.9254 20.8154 40.6769 20.561C42.0225 20.1048 42.5904 19.289 41.7123 18.368L41.7209 18.3636ZM31.944 18.6618C31.708 18.6706 31.4546 18.6399 31.3586 18.4425C31.2623 18.2496 31.437 18.1356 31.6598 18.1224C31.9044 18.1049 32.0925 18.2101 32.2146 18.3461C32.2146 18.5347 32.1362 18.6531 31.9396 18.6618H31.944Z" fill="#ED6F00"/>
<path fill-rule="evenodd" clip-rule="evenodd" d="M3.04486 32C2.3415 29.7895 1.96143 27.4344 1.96143 24.987C1.96143 16.3992 6.64025 8.91238 13.5733 4.94745C13.6782 5.27201 13.8267 5.6185 14.0321 5.98692C13.5384 6.3641 12.9836 6.91675 12.8088 7.5834C12.6821 8.06147 12.7608 8.53078 13.0229 8.94745C14.3597 11.0308 14.2505 14.7852 12.8132 16.2501L12.5161 16.5527L12.5642 16.9738C12.5947 17.2501 13.3942 23.8158 18.4575 25.816C18.9817 26.0221 19.5321 26.1974 20.1045 26.3333C20.2136 26.759 20.467 28.4563 21.1749 32.009C20.1525 32.921 17.5139 34.237 16.1334 34.1493C16.461 33.6403 16.7931 33.0307 16.9066 32.5044C17.61 29.259 18.676 27.5176 15.2771 24.6623C14.6262 24.1142 12.1142 22.7721 10.4148 22.7721C9.52796 22.7721 9.05615 23.1404 8.82023 23.4518C8.78529 23.4958 8.75471 23.5395 8.72414 23.5835C8.04261 23.1974 6.96793 22.7458 5.53936 22.7458C4.9365 22.7458 4.31177 22.829 3.68706 22.9914C3.18029 23.1228 2.81769 23.5044 2.71284 24.0088C2.59925 24.5483 2.82204 25.1449 3.25892 25.487C3.45989 25.6449 4.33797 26.671 3.04048 32.0132L3.04486 32Z" fill="#E6234A"/>
<path fill-rule="evenodd" clip-rule="evenodd" d="M47.8718 24.9871C47.8718 30.7722 45.7484 36.0616 42.2406 40.1099C42.0222 39.6099 41.7338 39.1888 41.463 38.8642C41.996 38.2371 43.0182 37.1669 43.5774 36.5835C44.7699 35.3379 44.7919 35.3162 44.8531 35.0092C44.8531 34.9915 44.8748 34.9388 44.8878 34.8994C45.4822 33.0748 44.3898 31.7678 41.2358 30.5222C39.3965 29.7941 35.3468 29.3248 33.0707 29.0002C33.1188 28.2371 30.4058 25.7415 30.6025 25.7634C33.7084 26.0748 35.1285 24.009 35.1895 23.8774C36.0458 23.566 37.3389 22.895 37.47 22.7985C37.6317 22.6801 37.78 22.5441 37.9244 22.4125C38.1033 22.2502 38.4049 21.9739 38.5404 21.9651C38.5534 21.9651 38.5622 21.9651 38.5752 21.9651C38.7063 21.9651 38.8985 22.0222 39.0994 22.0879C39.4009 22.1801 39.7767 22.2985 40.2091 22.2985C40.314 22.2985 40.4146 22.2897 40.5149 22.2765H40.5587C41.8257 22.1055 43.7347 21.8555 44.5429 19.4344C44.7132 18.9257 44.5996 18.3643 44.2327 17.8467C43.4725 16.7897 41.7032 15.9608 40.2003 15.9608C40.052 15.9608 39.9076 15.9696 39.7679 15.9827C39.4357 16.0222 36.4476 16.6099 35.3074 15.8994C36.6748 15.5397 37.4832 14.0573 37.5485 12.7853C37.7845 8.17568 34.0056 7.68445 33.6516 7.69322C33.6125 7.69322 33.5687 7.69322 33.5295 7.69322C32.1184 4.92129 27.8981 3.67129 24.4863 3.10551L24.4251 3.09675H24.3641C23.1757 3.06603 22.1666 2.77656 21.3364 2.21517C22.5073 2.03096 23.7087 1.93445 24.9319 1.93445C37.6097 1.93445 47.8892 12.2546 47.8892 24.9827L47.8718 24.9871Z" fill="#E6234A"/>
<path fill-rule="evenodd" clip-rule="evenodd" d="M15.225 31.1574C15.2337 31.1311 15.2424 31.1004 15.2468 31.0741C15.1288 31.3987 15.0677 31.5741 15.225 31.1574Z" fill="#003364"/>
<path fill-rule="evenodd" clip-rule="evenodd" d="M40.1175 19.3947C40.8556 19.2325 41.1046 19.4825 41.1046 19.4825C40.585 19.386 39.7812 19.9298 39.1782 20.4167C39.5625 20.579 39.9339 20.807 40.6853 20.5526C43.2192 19.693 41.1046 18.5439 40.1175 19.3904V19.3947Z" fill="#E6234A"/>
<path fill-rule="evenodd" clip-rule="evenodd" d="M20.0524 47.7457C18.3267 47.5921 15.8322 46.5002 14.2114 45.522C15.7361 45.465 17.6845 45.3948 18.6107 45.1625C18.698 45.693 18.8553 46.1404 18.8947 46.2413C19.0999 46.7937 19.799 47.5002 20.0524 47.7457Z" fill="#E6234A"/>
<path fill-rule="evenodd" clip-rule="evenodd" d="M34.1628 36.5002C33.9835 36.4871 33.8352 36.4652 33.9705 36.4959C34.0361 36.509 34.0972 36.509 34.1628 36.5002Z" fill="#003364"/>
<path fill-rule="evenodd" clip-rule="evenodd" d="M20.4758 41.4824C20.0695 41.7193 19.6503 41.9254 19.209 42.1097C17.9857 42.623 16.7232 42.9474 15.465 43.2721C13.0229 43.9037 10.7905 43.7632 8.75035 42.8772C8.28726 42.6754 7.36109 42.1009 7.39167 42.0397C7.41789 41.987 9.4974 41.3684 9.45805 41.364C8.74598 41.2149 6.57912 35.7544 6.45241 35.4607C5.50006 33.2893 5.74908 25.5307 4.77922 24.579C4.69185 24.4914 5.27289 24.4254 6.01556 24.5307C6.91986 25.6754 6.70143 32.8991 7.63195 34.9517C7.75866 35.2369 9.92988 40.4956 10.6376 40.6403C13.735 41.2676 17.1338 42.7807 20.4714 41.4779L20.4758 41.4824Z" fill="#C5C6C6"/>
<path fill-rule="evenodd" clip-rule="evenodd" d="M39.9512 42.2191C40.3531 41.6796 40.7202 40.6007 39.7853 40.25C39.7853 40.25 39.1081 40.763 39.3397 41.2893C37.116 40.6184 41.7073 35.7937 42.162 35.0307C42.389 34.3549 41.1789 33.7586 39.6107 33.2849C43.49 35.8287 34.9885 40.6926 38.8547 41.8549C38.8461 41.8377 38.0552 43.6356 36.749 44.2586C38.1296 44.2103 39.3441 43.0349 39.9512 42.2191Z" fill="#B1B2B3"/>
<path fill-rule="evenodd" clip-rule="evenodd" d="M27.0813 26.3506L26.3649 26.7585C26.2861 26.8022 26.225 26.8813 26.2513 26.9908L26.426 27.7585C26.4522 27.8682 26.5437 27.9208 26.6355 27.9296L27.5574 28.0261C28.1557 28.0875 28.4529 28.2322 28.2868 27.4998L28.0512 26.4736C27.8981 25.8022 27.5356 26.0919 27.0813 26.3506Z" fill="#1A1A18"/>
<path fill-rule="evenodd" clip-rule="evenodd" d="M25.0367 26.9647L25.7795 26.8114C25.906 26.785 26.0371 26.8726 26.0677 27.0043L26.2775 27.9033C26.3079 28.035 26.225 28.1577 26.0983 28.184L25.3555 28.3377C25.2289 28.364 25.0978 28.2763 25.0673 28.1447L24.8574 27.2454C24.8268 27.114 24.91 26.991 25.0367 26.9647Z" fill="#E6234A"/>
<path fill-rule="evenodd" clip-rule="evenodd" d="M28.2216 35.3816C28.4926 35.3816 28.7154 35.6009 28.7154 35.8774C28.7154 36.1537 28.497 36.373 28.2216 36.373C27.9464 36.373 27.728 36.1537 27.728 35.8774C27.728 35.6009 27.9464 35.3816 28.2216 35.3816ZM26.9723 30.7983C27.2431 30.7983 27.466 31.0176 27.466 31.2939C27.466 31.5704 27.2475 31.7897 26.9723 31.7897C26.697 31.7897 26.4785 31.5704 26.4785 31.2939C26.4785 31.0176 26.697 30.7983 26.9723 30.7983ZM27.693 33.0746C27.964 33.0746 28.1868 33.2939 28.1868 33.5704C28.1868 33.8467 27.9684 34.066 27.693 34.066C27.4178 34.066 27.1994 33.8467 27.1994 33.5704C27.1994 33.2939 27.4178 33.0746 27.693 33.0746Z" fill="#060D1F"/>
<path fill-rule="evenodd" clip-rule="evenodd" d="M23.6213 27.1143L24.5432 27.1669C24.6348 27.1713 24.7267 27.2283 24.7529 27.3379L24.9275 28.1009C24.9539 28.2107 24.8927 28.2895 24.814 28.3336L23.9273 28.8202C23.4117 29.1009 23.1976 29.3336 23.0272 28.6053L22.7913 27.579C22.634 26.9079 23.0885 27.0836 23.6257 27.1143H23.6213Z" fill="#1A1A18"/>
<path fill-rule="evenodd" clip-rule="evenodd" d="M25.3821 39.4608C25.2116 39.5354 25.0543 39.6275 24.9103 39.7371C24.7662 39.8468 24.6393 39.9695 24.5389 40.1055C24.4384 40.2415 24.3686 40.3687 24.3425 40.4957L23.4076 44.2415C23.3726 44.3645 23.3726 44.4957 23.4118 44.6318C23.4511 44.7678 23.5123 44.8908 23.5996 45.0002C23.6872 45.1099 23.7963 45.2022 23.9318 45.2764C24.0673 45.3511 24.2114 45.3862 24.373 45.3862H30.594C30.7601 45.3862 30.9261 45.3511 31.092 45.2764C31.2581 45.2022 31.4108 45.1099 31.5549 45.0002C31.6948 44.8908 31.8173 44.7678 31.9176 44.6318C32.0181 44.4957 32.0835 44.3645 32.1187 44.2415L32.7216 41.8599H30.2315H29.2222L29.0212 43.0047H29.9429L29.6329 44.2415H25.9019L26.837 40.4957H33.058L33.3462 39.3511H25.8843C25.7272 39.3511 25.5613 39.3862 25.3909 39.4608H25.3821Z" fill="#E6234A"/>
<path fill-rule="evenodd" clip-rule="evenodd" d="M25.1025 39.0487C24.932 39.1233 24.7747 39.2152 24.6306 39.325C24.4865 39.4346 24.3596 39.5573 24.2593 39.6934C24.1588 39.8294 24.089 39.9566 24.0628 40.0836L23.1278 43.8294C23.0928 43.9522 23.0928 44.0836 23.1321 44.2197C23.1715 44.3557 23.2327 44.4783 23.32 44.588C23.4073 44.6976 23.5167 44.7899 23.652 44.8643C23.7875 44.939 23.9316 44.9741 24.0934 44.9741H30.3144C30.4804 44.9741 30.6463 44.939 30.8124 44.8643C30.9785 44.7899 31.1312 44.6976 31.2753 44.588C31.4152 44.4783 31.5375 44.3557 31.6378 44.2197C31.7385 44.0836 31.8039 43.9522 31.839 43.8294L32.4416 41.4476H29.9515H28.9424L28.7416 42.5926H29.6633L29.3531 43.8294H25.6223L26.5572 40.0836H32.7783L33.0665 38.939H25.6047C25.4476 38.939 25.2815 38.9741 25.1111 39.0487H25.1025Z" fill="#1A1A18"/>
</g>
</g>
<path fill-rule="evenodd" clip-rule="evenodd" d="M65.0762 22.8157C63.46 22.8157 62.0863 22.2787 60.9574 21.2089C59.8261 20.1349 59.2605 18.7887 59.2605 17.1775V10.6382C59.2605 9.02696 59.8261 7.68089 60.9574 6.60675C62.0863 5.53709 63.46 5 65.0762 5H78.8554V9.15955H65.0762C63.9671 9.15955 63.4151 9.65617 63.4151 10.6449V17.173C63.4151 18.1617 63.9695 18.6585 65.0762 18.6585H74.7008V15.9888H69.0578V11.8292H78.8554V22.8157H65.0762ZM102.464 17.3056C102.464 18.8068 101.99 20.1011 101.045 21.1866C100.098 22.2719 98.8882 22.8157 97.4113 22.8157H85.6407C84.1413 22.8157 82.9225 22.2719 81.9888 21.1866C81.0552 20.1011 80.586 18.8068 80.586 17.3056V5H84.7406V17.3034C84.7406 18.2045 85.0416 18.6538 85.6407 18.6538H97.445C98.0219 18.6538 98.3114 18.2045 98.3114 17.3034V5H102.466V17.3034L102.464 17.3056ZM125.451 17.3236C125.451 18.8202 125.002 20.0966 124.099 21.1596C123.13 22.263 121.906 22.8181 120.429 22.8181H105.058V18.6585H120.429C121.006 18.6585 121.296 18.2134 121.296 17.3236C121.296 16.4337 121.006 15.9888 120.429 15.9888H109.247C107.77 15.9888 106.547 15.4337 105.577 14.3259C104.655 13.2854 104.192 12.0157 104.192 10.5124C104.192 9.00898 104.666 7.71685 105.611 6.63147C106.558 5.54606 107.768 5.00226 109.245 5.00226H124.616V9.16181H109.211C108.634 9.16181 108.345 9.61123 108.345 10.5124C108.345 11.4135 108.634 11.8292 109.211 11.8292H120.416C121.9 11.8292 123.123 12.3843 124.097 13.4876C124.997 14.5438 125.448 15.827 125.448 17.3236H125.451ZM146.188 9.16181H131.336V9.17977H127.181V5H146.186V9.15955L146.188 9.16181ZM145.218 15.9888H131.336V18.6585H146.152V22.8181H127.181V11.8787H145.218V15.9888Z" fill="#E6234A"/>
<path fill-rule="evenodd" clip-rule="evenodd" d="M78.5952 44.9009H64.8157C63.1995 44.9009 61.8258 44.3638 60.6969 43.2943C59.5656 42.22 59 40.874 59 39.2628V32.7234C59 31.1121 59.5656 29.7662 60.6969 28.6919C61.8282 27.6223 63.2019 27.0853 64.8157 27.0853H78.5952V31.2447H64.8157C63.7069 31.2447 63.1546 31.7415 63.1546 32.7302V39.2583C63.1546 40.247 63.709 40.7436 64.8157 40.7436H74.4404V38.074H68.7976V33.9145H78.5952V44.9009ZM102.17 44.9009H98.0151V39.2515H87.075V35.0919H98.0151V32.5953C98.0151 31.6943 97.7144 31.2447 97.1151 31.2447H85.3446C84.7678 31.2447 84.4781 31.6943 84.4781 32.5909V44.9009H80.3234V32.5864C80.3234 31.0898 80.7903 29.7953 81.7262 28.71C82.6599 27.6289 83.8677 27.0875 85.3446 27.0875H97.1151C98.6144 27.0875 99.8332 27.6313 100.767 28.71C101.701 29.7953 102.17 31.0898 102.17 32.5864V44.9009ZM125.192 44.9009H121.54V34.0515L115.027 44.6223L108.513 34.0515V44.9009H104.861V27.0853H108.695L115.025 37.3796L121.386 27.0853H125.19V44.9009H125.192ZM145.894 31.2426H131.069V31.2492H126.923V27.0919H145.894V31.2426ZM144.992 33.9436V38.0717H131.084V40.746H145.928V44.9121H126.923V33.9436H144.992Z" fill="white"/>
</svg>
